M48
; DRILL file {KiCad 7.0.7} date Fri Aug  2 14:57:37 2024
; FORMAT={-:-/ absolute / inch / decimal}
; #@! TF.CreationDate,2024-08-02T14:57:37+08:00
; #@! TF.GenerationSoftware,Kicad,Pcbnew,7.0.7
; #@! TF.FileFunction,Plated,1,2,PTH
FMAT,2
INCH
; #@! TA.AperFunction,Plated,PTH,ComponentDrill
T1C0.0276
; #@! TA.AperFunction,Plated,PTH,ComponentDrill
T2C0.0315
; #@! TA.AperFunction,Plated,PTH,ComponentDrill
T3C0.0354
; #@! TA.AperFunction,Plated,PTH,ComponentDrill
T4C0.0394
; #@! TA.AperFunction,Plated,PTH,ComponentDrill
T5C0.0433
; #@! TA.AperFunction,Plated,PTH,ComponentDrill
T6C0.0598
%
G90
G05
T1
X4.8795Y-4.9705
X5.1795Y-4.9705
X5.4724Y-4.348
X5.4724Y-4.648
X5.6398Y-4.0823
X5.6398Y-4.3823
T2
X4.872Y-3.7992
X4.9705Y-3.7992
X5.2067Y-3.5925
X5.2067Y-3.6909
X5.5512Y-3.878
X5.6496Y-3.878
T3
X5.2953Y-4.0748
X5.2953Y-4.1732
X5.2953Y-4.2717
X5.6004Y-4.813
X5.6004Y-4.913
T4
X4.7327Y-5.1772
X4.7616Y-3.5531
X4.8327Y-5.1772
X4.8616Y-3.5531
X4.9327Y-5.1772
X4.9616Y-3.5531
X5.738Y-5.3051
X5.738Y-5.4051
X5.748Y-3.5122
X5.748Y-3.6122
T5
X4.7327Y-4.6478
X4.8327Y-4.6478
X4.9327Y-4.6478
X5.2067Y-4.585
X5.2067Y-4.685
X5.2067Y-4.785
T6
X5.3626Y-3.5982
X5.4724Y-5.1657
X5.4724Y-5.3657
X5.5626Y-3.5982
T4
G00X4.872Y-4.1437
M15
G01X4.872Y-4.2224
M16
G05
G00X4.9508Y-4.3681
M15
G01X5.0295Y-4.3681
M16
G05
G00X5.1083Y-4.1437
M15
G01X5.1083Y-4.2224
M16
G05
T0
M30
