%TF.GenerationSoftware,KiCad,Pcbnew,7.0.7*%
%TF.CreationDate,2024-08-02T14:57:20+08:00*%
%TF.ProjectId,Breadboard_power_supply,42726561-6462-46f6-9172-645f706f7765,rev?*%
%TF.SameCoordinates,Original*%
%TF.FileFunction,Soldermask,Bot*%
%TF.FilePolarity,Negative*%
%FSLAX46Y46*%
G04 Gerber Fmt 4.6, Leading zero omitted, Abs format (unit mm)*
G04 Created by KiCad (PCBNEW 7.0.7) date 2024-08-02 14:57:20*
%MOMM*%
%LPD*%
G01*
G04 APERTURE LIST*
G04 Aperture macros list*
%AMRoundRect*
0 Rectangle with rounded corners*
0 $1 Rounding radius*
0 $2 $3 $4 $5 $6 $7 $8 $9 X,Y pos of 4 corners*
0 Add a 4 corners polygon primitive as box body*
4,1,4,$2,$3,$4,$5,$6,$7,$8,$9,$2,$3,0*
0 Add four circle primitives for the rounded corners*
1,1,$1+$1,$2,$3*
1,1,$1+$1,$4,$5*
1,1,$1+$1,$6,$7*
1,1,$1+$1,$8,$9*
0 Add four rect primitives between the rounded corners*
20,1,$1+$1,$2,$3,$4,$5,0*
20,1,$1+$1,$4,$5,$6,$7,0*
20,1,$1+$1,$6,$7,$8,$9,0*
20,1,$1+$1,$8,$9,$2,$3,0*%
G04 Aperture macros list end*
%ADD10R,1.700000X1.700000*%
%ADD11O,1.700000X1.700000*%
%ADD12R,2.000000X1.905000*%
%ADD13O,2.000000X1.905000*%
%ADD14C,1.400000*%
%ADD15O,1.400000X1.400000*%
%ADD16C,1.600000*%
%ADD17R,1.800000X1.800000*%
%ADD18C,1.800000*%
%ADD19R,3.000000X3.000000*%
%ADD20C,3.000000*%
%ADD21R,3.500000X3.500000*%
%ADD22RoundRect,0.750000X-0.750000X-1.000000X0.750000X-1.000000X0.750000X1.000000X-0.750000X1.000000X0*%
%ADD23RoundRect,0.875000X-0.875000X-0.875000X0.875000X-0.875000X0.875000X0.875000X-0.875000X0.875000X0*%
%ADD24R,1.900000X1.900000*%
%ADD25C,1.900000*%
%ADD26R,1.905000X2.000000*%
%ADD27O,1.905000X2.000000*%
G04 APERTURE END LIST*
D10*
%TO.C,J4*%
X125290000Y-131500000D03*
D11*
X122750000Y-131500000D03*
X120210000Y-131500000D03*
%TD*%
D12*
%TO.C,U2*%
X132250000Y-116460000D03*
D13*
X132250000Y-119000000D03*
X132250000Y-121540000D03*
%TD*%
D14*
%TO.C,R1*%
X131560000Y-126250000D03*
D15*
X123940000Y-126250000D03*
%TD*%
D16*
%TO.C,C1*%
X141000000Y-98500000D03*
X143500000Y-98500000D03*
%TD*%
D10*
%TO.C,J2*%
X145746000Y-134750000D03*
D11*
X145746000Y-137290000D03*
%TD*%
D14*
%TO.C,R2*%
X139000000Y-110440000D03*
D15*
X139000000Y-118060000D03*
%TD*%
D10*
%TO.C,J3*%
X126025000Y-90250000D03*
D11*
X123485000Y-90250000D03*
X120945000Y-90250000D03*
%TD*%
D17*
%TO.C,D1*%
X142250000Y-122250000D03*
D18*
X142250000Y-124790000D03*
%TD*%
D14*
%TO.C,R3*%
X143250000Y-103690000D03*
D15*
X143250000Y-111310000D03*
%TD*%
D19*
%TO.C,J7*%
X139000000Y-131210000D03*
D20*
X139000000Y-136290000D03*
%TD*%
D16*
%TO.C,C3*%
X123750000Y-96500000D03*
X126250000Y-96500000D03*
%TD*%
%TO.C,C2*%
X132250000Y-91250000D03*
X132250000Y-93750000D03*
%TD*%
D19*
%TO.C,J5*%
X136210000Y-91394000D03*
D20*
X141290000Y-91394000D03*
%TD*%
D21*
%TO.C,J6*%
X129750000Y-106250000D03*
D22*
X123750000Y-106250000D03*
D23*
X126750000Y-110950000D03*
%TD*%
D24*
%TO.C,S1*%
X134500000Y-103500000D03*
D25*
X134500000Y-106000000D03*
X134500000Y-108500000D03*
%TD*%
D26*
%TO.C,U1*%
X125290000Y-118055000D03*
D27*
X122750000Y-118055000D03*
X120210000Y-118055000D03*
%TD*%
D10*
%TO.C,J1*%
X146000000Y-89210000D03*
D11*
X146000000Y-91750000D03*
%TD*%
M02*
