%TF.GenerationSoftware,KiCad,Pcbnew,7.0.7*%
%TF.CreationDate,2024-08-02T14:57:20+08:00*%
%TF.ProjectId,Breadboard_power_supply,42726561-6462-46f6-9172-645f706f7765,rev?*%
%TF.SameCoordinates,Original*%
%TF.FileFunction,Legend,Top*%
%TF.FilePolarity,Positive*%
%FSLAX46Y46*%
G04 Gerber Fmt 4.6, Leading zero omitted, Abs format (unit mm)*
G04 Created by KiCad (PCBNEW 7.0.7) date 2024-08-02 14:57:20*
%MOMM*%
%LPD*%
G01*
G04 APERTURE LIST*
%ADD10C,0.100000*%
%ADD11C,0.150000*%
%ADD12C,0.120000*%
G04 APERTURE END LIST*
D10*
X146957419Y-134803258D02*
X146933609Y-134850877D01*
X146933609Y-134850877D02*
X146933609Y-134922306D01*
X146933609Y-134922306D02*
X146957419Y-134993734D01*
X146957419Y-134993734D02*
X147005038Y-135041353D01*
X147005038Y-135041353D02*
X147052657Y-135065163D01*
X147052657Y-135065163D02*
X147147895Y-135088972D01*
X147147895Y-135088972D02*
X147219323Y-135088972D01*
X147219323Y-135088972D02*
X147314561Y-135065163D01*
X147314561Y-135065163D02*
X147362180Y-135041353D01*
X147362180Y-135041353D02*
X147409800Y-134993734D01*
X147409800Y-134993734D02*
X147433609Y-134922306D01*
X147433609Y-134922306D02*
X147433609Y-134874687D01*
X147433609Y-134874687D02*
X147409800Y-134803258D01*
X147409800Y-134803258D02*
X147385990Y-134779449D01*
X147385990Y-134779449D02*
X147219323Y-134779449D01*
X147219323Y-134779449D02*
X147219323Y-134874687D01*
X147433609Y-134565163D02*
X146933609Y-134565163D01*
X146933609Y-134565163D02*
X147433609Y-134279449D01*
X147433609Y-134279449D02*
X146933609Y-134279449D01*
X147433609Y-134041353D02*
X146933609Y-134041353D01*
X146933609Y-134041353D02*
X146933609Y-133922305D01*
X146933609Y-133922305D02*
X146957419Y-133850877D01*
X146957419Y-133850877D02*
X147005038Y-133803258D01*
X147005038Y-133803258D02*
X147052657Y-133779448D01*
X147052657Y-133779448D02*
X147147895Y-133755639D01*
X147147895Y-133755639D02*
X147219323Y-133755639D01*
X147219323Y-133755639D02*
X147314561Y-133779448D01*
X147314561Y-133779448D02*
X147362180Y-133803258D01*
X147362180Y-133803258D02*
X147409800Y-133850877D01*
X147409800Y-133850877D02*
X147433609Y-133922305D01*
X147433609Y-133922305D02*
X147433609Y-134041353D01*
D11*
X126241541Y-92119819D02*
X126860588Y-92119819D01*
X126860588Y-92119819D02*
X126527255Y-92500771D01*
X126527255Y-92500771D02*
X126670112Y-92500771D01*
X126670112Y-92500771D02*
X126765350Y-92548390D01*
X126765350Y-92548390D02*
X126812969Y-92596009D01*
X126812969Y-92596009D02*
X126860588Y-92691247D01*
X126860588Y-92691247D02*
X126860588Y-92929342D01*
X126860588Y-92929342D02*
X126812969Y-93024580D01*
X126812969Y-93024580D02*
X126765350Y-93072200D01*
X126765350Y-93072200D02*
X126670112Y-93119819D01*
X126670112Y-93119819D02*
X126384398Y-93119819D01*
X126384398Y-93119819D02*
X126289160Y-93072200D01*
X126289160Y-93072200D02*
X126241541Y-93024580D01*
X127289160Y-93024580D02*
X127336779Y-93072200D01*
X127336779Y-93072200D02*
X127289160Y-93119819D01*
X127289160Y-93119819D02*
X127241541Y-93072200D01*
X127241541Y-93072200D02*
X127289160Y-93024580D01*
X127289160Y-93024580D02*
X127289160Y-93119819D01*
X127670112Y-92119819D02*
X128289159Y-92119819D01*
X128289159Y-92119819D02*
X127955826Y-92500771D01*
X127955826Y-92500771D02*
X128098683Y-92500771D01*
X128098683Y-92500771D02*
X128193921Y-92548390D01*
X128193921Y-92548390D02*
X128241540Y-92596009D01*
X128241540Y-92596009D02*
X128289159Y-92691247D01*
X128289159Y-92691247D02*
X128289159Y-92929342D01*
X128289159Y-92929342D02*
X128241540Y-93024580D01*
X128241540Y-93024580D02*
X128193921Y-93072200D01*
X128193921Y-93072200D02*
X128098683Y-93119819D01*
X128098683Y-93119819D02*
X127812969Y-93119819D01*
X127812969Y-93119819D02*
X127717731Y-93072200D01*
X127717731Y-93072200D02*
X127670112Y-93024580D01*
X128574874Y-92119819D02*
X128908207Y-93119819D01*
X128908207Y-93119819D02*
X129241540Y-92119819D01*
X121312969Y-128369819D02*
X120836779Y-128369819D01*
X120836779Y-128369819D02*
X120789160Y-128846009D01*
X120789160Y-128846009D02*
X120836779Y-128798390D01*
X120836779Y-128798390D02*
X120932017Y-128750771D01*
X120932017Y-128750771D02*
X121170112Y-128750771D01*
X121170112Y-128750771D02*
X121265350Y-128798390D01*
X121265350Y-128798390D02*
X121312969Y-128846009D01*
X121312969Y-128846009D02*
X121360588Y-128941247D01*
X121360588Y-128941247D02*
X121360588Y-129179342D01*
X121360588Y-129179342D02*
X121312969Y-129274580D01*
X121312969Y-129274580D02*
X121265350Y-129322200D01*
X121265350Y-129322200D02*
X121170112Y-129369819D01*
X121170112Y-129369819D02*
X120932017Y-129369819D01*
X120932017Y-129369819D02*
X120836779Y-129322200D01*
X120836779Y-129322200D02*
X120789160Y-129274580D01*
X121646303Y-128369819D02*
X121979636Y-129369819D01*
X121979636Y-129369819D02*
X122312969Y-128369819D01*
X137110588Y-127167438D02*
X137015350Y-127119819D01*
X137015350Y-127119819D02*
X136872493Y-127119819D01*
X136872493Y-127119819D02*
X136729636Y-127167438D01*
X136729636Y-127167438D02*
X136634398Y-127262676D01*
X136634398Y-127262676D02*
X136586779Y-127357914D01*
X136586779Y-127357914D02*
X136539160Y-127548390D01*
X136539160Y-127548390D02*
X136539160Y-127691247D01*
X136539160Y-127691247D02*
X136586779Y-127881723D01*
X136586779Y-127881723D02*
X136634398Y-127976961D01*
X136634398Y-127976961D02*
X136729636Y-128072200D01*
X136729636Y-128072200D02*
X136872493Y-128119819D01*
X136872493Y-128119819D02*
X136967731Y-128119819D01*
X136967731Y-128119819D02*
X137110588Y-128072200D01*
X137110588Y-128072200D02*
X137158207Y-128024580D01*
X137158207Y-128024580D02*
X137158207Y-127691247D01*
X137158207Y-127691247D02*
X136967731Y-127691247D01*
X137586779Y-128119819D02*
X137586779Y-127119819D01*
X137586779Y-127119819D02*
X138158207Y-128119819D01*
X138158207Y-128119819D02*
X138158207Y-127119819D01*
X138634398Y-128119819D02*
X138634398Y-127119819D01*
X138634398Y-127119819D02*
X138872493Y-127119819D01*
X138872493Y-127119819D02*
X139015350Y-127167438D01*
X139015350Y-127167438D02*
X139110588Y-127262676D01*
X139110588Y-127262676D02*
X139158207Y-127357914D01*
X139158207Y-127357914D02*
X139205826Y-127548390D01*
X139205826Y-127548390D02*
X139205826Y-127691247D01*
X139205826Y-127691247D02*
X139158207Y-127881723D01*
X139158207Y-127881723D02*
X139110588Y-127976961D01*
X139110588Y-127976961D02*
X139015350Y-128072200D01*
X139015350Y-128072200D02*
X138872493Y-128119819D01*
X138872493Y-128119819D02*
X138634398Y-128119819D01*
X133869819Y-111972744D02*
X133869819Y-111782268D01*
X133869819Y-111782268D02*
X133917438Y-111687030D01*
X133917438Y-111687030D02*
X134012676Y-111591792D01*
X134012676Y-111591792D02*
X134203152Y-111544173D01*
X134203152Y-111544173D02*
X134536485Y-111544173D01*
X134536485Y-111544173D02*
X134726961Y-111591792D01*
X134726961Y-111591792D02*
X134822200Y-111687030D01*
X134822200Y-111687030D02*
X134869819Y-111782268D01*
X134869819Y-111782268D02*
X134869819Y-111972744D01*
X134869819Y-111972744D02*
X134822200Y-112067982D01*
X134822200Y-112067982D02*
X134726961Y-112163220D01*
X134726961Y-112163220D02*
X134536485Y-112210839D01*
X134536485Y-112210839D02*
X134203152Y-112210839D01*
X134203152Y-112210839D02*
X134012676Y-112163220D01*
X134012676Y-112163220D02*
X133917438Y-112067982D01*
X133917438Y-112067982D02*
X133869819Y-111972744D01*
X134346009Y-110782268D02*
X134346009Y-111115601D01*
X134869819Y-111115601D02*
X133869819Y-111115601D01*
X133869819Y-111115601D02*
X133869819Y-110639411D01*
X134346009Y-109925125D02*
X134346009Y-110258458D01*
X134869819Y-110258458D02*
X133869819Y-110258458D01*
X133869819Y-110258458D02*
X133869819Y-109782268D01*
X125610588Y-113417438D02*
X125515350Y-113369819D01*
X125515350Y-113369819D02*
X125372493Y-113369819D01*
X125372493Y-113369819D02*
X125229636Y-113417438D01*
X125229636Y-113417438D02*
X125134398Y-113512676D01*
X125134398Y-113512676D02*
X125086779Y-113607914D01*
X125086779Y-113607914D02*
X125039160Y-113798390D01*
X125039160Y-113798390D02*
X125039160Y-113941247D01*
X125039160Y-113941247D02*
X125086779Y-114131723D01*
X125086779Y-114131723D02*
X125134398Y-114226961D01*
X125134398Y-114226961D02*
X125229636Y-114322200D01*
X125229636Y-114322200D02*
X125372493Y-114369819D01*
X125372493Y-114369819D02*
X125467731Y-114369819D01*
X125467731Y-114369819D02*
X125610588Y-114322200D01*
X125610588Y-114322200D02*
X125658207Y-114274580D01*
X125658207Y-114274580D02*
X125658207Y-113941247D01*
X125658207Y-113941247D02*
X125467731Y-113941247D01*
X126086779Y-114369819D02*
X126086779Y-113369819D01*
X126086779Y-113369819D02*
X126658207Y-114369819D01*
X126658207Y-114369819D02*
X126658207Y-113369819D01*
X127134398Y-114369819D02*
X127134398Y-113369819D01*
X127134398Y-113369819D02*
X127372493Y-113369819D01*
X127372493Y-113369819D02*
X127515350Y-113417438D01*
X127515350Y-113417438D02*
X127610588Y-113512676D01*
X127610588Y-113512676D02*
X127658207Y-113607914D01*
X127658207Y-113607914D02*
X127705826Y-113798390D01*
X127705826Y-113798390D02*
X127705826Y-113941247D01*
X127705826Y-113941247D02*
X127658207Y-114131723D01*
X127658207Y-114131723D02*
X127610588Y-114226961D01*
X127610588Y-114226961D02*
X127515350Y-114322200D01*
X127515350Y-114322200D02*
X127372493Y-114369819D01*
X127372493Y-114369819D02*
X127134398Y-114369819D01*
X122062969Y-92119819D02*
X121586779Y-92119819D01*
X121586779Y-92119819D02*
X121539160Y-92596009D01*
X121539160Y-92596009D02*
X121586779Y-92548390D01*
X121586779Y-92548390D02*
X121682017Y-92500771D01*
X121682017Y-92500771D02*
X121920112Y-92500771D01*
X121920112Y-92500771D02*
X122015350Y-92548390D01*
X122015350Y-92548390D02*
X122062969Y-92596009D01*
X122062969Y-92596009D02*
X122110588Y-92691247D01*
X122110588Y-92691247D02*
X122110588Y-92929342D01*
X122110588Y-92929342D02*
X122062969Y-93024580D01*
X122062969Y-93024580D02*
X122015350Y-93072200D01*
X122015350Y-93072200D02*
X121920112Y-93119819D01*
X121920112Y-93119819D02*
X121682017Y-93119819D01*
X121682017Y-93119819D02*
X121586779Y-93072200D01*
X121586779Y-93072200D02*
X121539160Y-93024580D01*
X122396303Y-92119819D02*
X122729636Y-93119819D01*
X122729636Y-93119819D02*
X123062969Y-92119819D01*
D10*
X146957419Y-89303258D02*
X146933609Y-89350877D01*
X146933609Y-89350877D02*
X146933609Y-89422306D01*
X146933609Y-89422306D02*
X146957419Y-89493734D01*
X146957419Y-89493734D02*
X147005038Y-89541353D01*
X147005038Y-89541353D02*
X147052657Y-89565163D01*
X147052657Y-89565163D02*
X147147895Y-89588972D01*
X147147895Y-89588972D02*
X147219323Y-89588972D01*
X147219323Y-89588972D02*
X147314561Y-89565163D01*
X147314561Y-89565163D02*
X147362180Y-89541353D01*
X147362180Y-89541353D02*
X147409800Y-89493734D01*
X147409800Y-89493734D02*
X147433609Y-89422306D01*
X147433609Y-89422306D02*
X147433609Y-89374687D01*
X147433609Y-89374687D02*
X147409800Y-89303258D01*
X147409800Y-89303258D02*
X147385990Y-89279449D01*
X147385990Y-89279449D02*
X147219323Y-89279449D01*
X147219323Y-89279449D02*
X147219323Y-89374687D01*
X147433609Y-89065163D02*
X146933609Y-89065163D01*
X146933609Y-89065163D02*
X147433609Y-88779449D01*
X147433609Y-88779449D02*
X146933609Y-88779449D01*
X147433609Y-88541353D02*
X146933609Y-88541353D01*
X146933609Y-88541353D02*
X146933609Y-88422305D01*
X146933609Y-88422305D02*
X146957419Y-88350877D01*
X146957419Y-88350877D02*
X147005038Y-88303258D01*
X147005038Y-88303258D02*
X147052657Y-88279448D01*
X147052657Y-88279448D02*
X147147895Y-88255639D01*
X147147895Y-88255639D02*
X147219323Y-88255639D01*
X147219323Y-88255639D02*
X147314561Y-88279448D01*
X147314561Y-88279448D02*
X147362180Y-88303258D01*
X147362180Y-88303258D02*
X147409800Y-88350877D01*
X147409800Y-88350877D02*
X147433609Y-88422305D01*
X147433609Y-88422305D02*
X147433609Y-88541353D01*
D11*
X142086779Y-127238866D02*
X142848684Y-127238866D01*
X142467731Y-127619819D02*
X142467731Y-126857914D01*
X124741541Y-133619819D02*
X125360588Y-133619819D01*
X125360588Y-133619819D02*
X125027255Y-134000771D01*
X125027255Y-134000771D02*
X125170112Y-134000771D01*
X125170112Y-134000771D02*
X125265350Y-134048390D01*
X125265350Y-134048390D02*
X125312969Y-134096009D01*
X125312969Y-134096009D02*
X125360588Y-134191247D01*
X125360588Y-134191247D02*
X125360588Y-134429342D01*
X125360588Y-134429342D02*
X125312969Y-134524580D01*
X125312969Y-134524580D02*
X125265350Y-134572200D01*
X125265350Y-134572200D02*
X125170112Y-134619819D01*
X125170112Y-134619819D02*
X124884398Y-134619819D01*
X124884398Y-134619819D02*
X124789160Y-134572200D01*
X124789160Y-134572200D02*
X124741541Y-134524580D01*
X125789160Y-134524580D02*
X125836779Y-134572200D01*
X125836779Y-134572200D02*
X125789160Y-134619819D01*
X125789160Y-134619819D02*
X125741541Y-134572200D01*
X125741541Y-134572200D02*
X125789160Y-134524580D01*
X125789160Y-134524580D02*
X125789160Y-134619819D01*
X126170112Y-133619819D02*
X126789159Y-133619819D01*
X126789159Y-133619819D02*
X126455826Y-134000771D01*
X126455826Y-134000771D02*
X126598683Y-134000771D01*
X126598683Y-134000771D02*
X126693921Y-134048390D01*
X126693921Y-134048390D02*
X126741540Y-134096009D01*
X126741540Y-134096009D02*
X126789159Y-134191247D01*
X126789159Y-134191247D02*
X126789159Y-134429342D01*
X126789159Y-134429342D02*
X126741540Y-134524580D01*
X126741540Y-134524580D02*
X126693921Y-134572200D01*
X126693921Y-134572200D02*
X126598683Y-134619819D01*
X126598683Y-134619819D02*
X126312969Y-134619819D01*
X126312969Y-134619819D02*
X126217731Y-134572200D01*
X126217731Y-134572200D02*
X126170112Y-134524580D01*
X127074874Y-133619819D02*
X127408207Y-134619819D01*
X127408207Y-134619819D02*
X127741540Y-133619819D01*
X127074819Y-131833333D02*
X127789104Y-131833333D01*
X127789104Y-131833333D02*
X127931961Y-131880952D01*
X127931961Y-131880952D02*
X128027200Y-131976190D01*
X128027200Y-131976190D02*
X128074819Y-132119047D01*
X128074819Y-132119047D02*
X128074819Y-132214285D01*
X127408152Y-130928571D02*
X128074819Y-130928571D01*
X127027200Y-131166666D02*
X127741485Y-131404761D01*
X127741485Y-131404761D02*
X127741485Y-130785714D01*
D10*
X118242180Y-135747619D02*
X118289800Y-135785715D01*
X118289800Y-135785715D02*
X118337419Y-135900000D01*
X118337419Y-135900000D02*
X118337419Y-135976191D01*
X118337419Y-135976191D02*
X118289800Y-136090477D01*
X118289800Y-136090477D02*
X118194561Y-136166667D01*
X118194561Y-136166667D02*
X118099323Y-136204762D01*
X118099323Y-136204762D02*
X117908847Y-136242858D01*
X117908847Y-136242858D02*
X117765990Y-136242858D01*
X117765990Y-136242858D02*
X117575514Y-136204762D01*
X117575514Y-136204762D02*
X117480276Y-136166667D01*
X117480276Y-136166667D02*
X117385038Y-136090477D01*
X117385038Y-136090477D02*
X117337419Y-135976191D01*
X117337419Y-135976191D02*
X117337419Y-135900000D01*
X117337419Y-135900000D02*
X117385038Y-135785715D01*
X117385038Y-135785715D02*
X117432657Y-135747619D01*
X118337419Y-135290477D02*
X118289800Y-135366667D01*
X118289800Y-135366667D02*
X118242180Y-135404762D01*
X118242180Y-135404762D02*
X118146942Y-135442858D01*
X118146942Y-135442858D02*
X117861228Y-135442858D01*
X117861228Y-135442858D02*
X117765990Y-135404762D01*
X117765990Y-135404762D02*
X117718371Y-135366667D01*
X117718371Y-135366667D02*
X117670752Y-135290477D01*
X117670752Y-135290477D02*
X117670752Y-135176191D01*
X117670752Y-135176191D02*
X117718371Y-135100000D01*
X117718371Y-135100000D02*
X117765990Y-135061905D01*
X117765990Y-135061905D02*
X117861228Y-135023810D01*
X117861228Y-135023810D02*
X118146942Y-135023810D01*
X118146942Y-135023810D02*
X118242180Y-135061905D01*
X118242180Y-135061905D02*
X118289800Y-135100000D01*
X118289800Y-135100000D02*
X118337419Y-135176191D01*
X118337419Y-135176191D02*
X118337419Y-135290477D01*
X117670752Y-134680952D02*
X118337419Y-134680952D01*
X117765990Y-134680952D02*
X117718371Y-134642857D01*
X117718371Y-134642857D02*
X117670752Y-134566667D01*
X117670752Y-134566667D02*
X117670752Y-134452381D01*
X117670752Y-134452381D02*
X117718371Y-134376190D01*
X117718371Y-134376190D02*
X117813609Y-134338095D01*
X117813609Y-134338095D02*
X118337419Y-134338095D01*
X117670752Y-133957142D02*
X118337419Y-133957142D01*
X117765990Y-133957142D02*
X117718371Y-133919047D01*
X117718371Y-133919047D02*
X117670752Y-133842857D01*
X117670752Y-133842857D02*
X117670752Y-133728571D01*
X117670752Y-133728571D02*
X117718371Y-133652380D01*
X117718371Y-133652380D02*
X117813609Y-133614285D01*
X117813609Y-133614285D02*
X118337419Y-133614285D01*
X118432657Y-133423809D02*
X118432657Y-132814285D01*
X117337419Y-132471427D02*
X117337419Y-132395237D01*
X117337419Y-132395237D02*
X117385038Y-132319046D01*
X117385038Y-132319046D02*
X117432657Y-132280951D01*
X117432657Y-132280951D02*
X117527895Y-132242856D01*
X117527895Y-132242856D02*
X117718371Y-132204761D01*
X117718371Y-132204761D02*
X117956466Y-132204761D01*
X117956466Y-132204761D02*
X118146942Y-132242856D01*
X118146942Y-132242856D02*
X118242180Y-132280951D01*
X118242180Y-132280951D02*
X118289800Y-132319046D01*
X118289800Y-132319046D02*
X118337419Y-132395237D01*
X118337419Y-132395237D02*
X118337419Y-132471427D01*
X118337419Y-132471427D02*
X118289800Y-132547618D01*
X118289800Y-132547618D02*
X118242180Y-132585713D01*
X118242180Y-132585713D02*
X118146942Y-132623808D01*
X118146942Y-132623808D02*
X117956466Y-132661904D01*
X117956466Y-132661904D02*
X117718371Y-132661904D01*
X117718371Y-132661904D02*
X117527895Y-132623808D01*
X117527895Y-132623808D02*
X117432657Y-132585713D01*
X117432657Y-132585713D02*
X117385038Y-132547618D01*
X117385038Y-132547618D02*
X117337419Y-132471427D01*
X118337419Y-131442856D02*
X118337419Y-131899999D01*
X118337419Y-131671427D02*
X117337419Y-131671427D01*
X117337419Y-131671427D02*
X117480276Y-131747618D01*
X117480276Y-131747618D02*
X117575514Y-131823808D01*
X117575514Y-131823808D02*
X117623133Y-131899999D01*
X118337419Y-131176189D02*
X117670752Y-130757141D01*
X117670752Y-131176189D02*
X118337419Y-130757141D01*
X117337419Y-130299998D02*
X117337419Y-130223808D01*
X117337419Y-130223808D02*
X117385038Y-130147617D01*
X117385038Y-130147617D02*
X117432657Y-130109522D01*
X117432657Y-130109522D02*
X117527895Y-130071427D01*
X117527895Y-130071427D02*
X117718371Y-130033332D01*
X117718371Y-130033332D02*
X117956466Y-130033332D01*
X117956466Y-130033332D02*
X118146942Y-130071427D01*
X118146942Y-130071427D02*
X118242180Y-130109522D01*
X118242180Y-130109522D02*
X118289800Y-130147617D01*
X118289800Y-130147617D02*
X118337419Y-130223808D01*
X118337419Y-130223808D02*
X118337419Y-130299998D01*
X118337419Y-130299998D02*
X118289800Y-130376189D01*
X118289800Y-130376189D02*
X118242180Y-130414284D01*
X118242180Y-130414284D02*
X118146942Y-130452379D01*
X118146942Y-130452379D02*
X117956466Y-130490475D01*
X117956466Y-130490475D02*
X117718371Y-130490475D01*
X117718371Y-130490475D02*
X117527895Y-130452379D01*
X117527895Y-130452379D02*
X117432657Y-130414284D01*
X117432657Y-130414284D02*
X117385038Y-130376189D01*
X117385038Y-130376189D02*
X117337419Y-130299998D01*
X117337419Y-129766665D02*
X117337419Y-129271427D01*
X117337419Y-129271427D02*
X117718371Y-129538093D01*
X117718371Y-129538093D02*
X117718371Y-129423808D01*
X117718371Y-129423808D02*
X117765990Y-129347617D01*
X117765990Y-129347617D02*
X117813609Y-129309522D01*
X117813609Y-129309522D02*
X117908847Y-129271427D01*
X117908847Y-129271427D02*
X118146942Y-129271427D01*
X118146942Y-129271427D02*
X118242180Y-129309522D01*
X118242180Y-129309522D02*
X118289800Y-129347617D01*
X118289800Y-129347617D02*
X118337419Y-129423808D01*
X118337419Y-129423808D02*
X118337419Y-129652379D01*
X118337419Y-129652379D02*
X118289800Y-129728570D01*
X118289800Y-129728570D02*
X118242180Y-129766665D01*
X118432657Y-129119046D02*
X118432657Y-128509522D01*
X118337419Y-128319045D02*
X117337419Y-128319045D01*
X117337419Y-128319045D02*
X117337419Y-128014283D01*
X117337419Y-128014283D02*
X117385038Y-127938093D01*
X117385038Y-127938093D02*
X117432657Y-127899998D01*
X117432657Y-127899998D02*
X117527895Y-127861902D01*
X117527895Y-127861902D02*
X117670752Y-127861902D01*
X117670752Y-127861902D02*
X117765990Y-127899998D01*
X117765990Y-127899998D02*
X117813609Y-127938093D01*
X117813609Y-127938093D02*
X117861228Y-128014283D01*
X117861228Y-128014283D02*
X117861228Y-128319045D01*
X118337419Y-127519045D02*
X117670752Y-127519045D01*
X117337419Y-127519045D02*
X117385038Y-127557141D01*
X117385038Y-127557141D02*
X117432657Y-127519045D01*
X117432657Y-127519045D02*
X117385038Y-127480950D01*
X117385038Y-127480950D02*
X117337419Y-127519045D01*
X117337419Y-127519045D02*
X117432657Y-127519045D01*
X117670752Y-127138093D02*
X118337419Y-127138093D01*
X117765990Y-127138093D02*
X117718371Y-127099998D01*
X117718371Y-127099998D02*
X117670752Y-127023808D01*
X117670752Y-127023808D02*
X117670752Y-126909522D01*
X117670752Y-126909522D02*
X117718371Y-126833331D01*
X117718371Y-126833331D02*
X117813609Y-126795236D01*
X117813609Y-126795236D02*
X118337419Y-126795236D01*
D11*
X135974819Y-119761904D02*
X136784342Y-119761904D01*
X136784342Y-119761904D02*
X136879580Y-119714285D01*
X136879580Y-119714285D02*
X136927200Y-119666666D01*
X136927200Y-119666666D02*
X136974819Y-119571428D01*
X136974819Y-119571428D02*
X136974819Y-119380952D01*
X136974819Y-119380952D02*
X136927200Y-119285714D01*
X136927200Y-119285714D02*
X136879580Y-119238095D01*
X136879580Y-119238095D02*
X136784342Y-119190476D01*
X136784342Y-119190476D02*
X135974819Y-119190476D01*
X136070057Y-118761904D02*
X136022438Y-118714285D01*
X136022438Y-118714285D02*
X135974819Y-118619047D01*
X135974819Y-118619047D02*
X135974819Y-118380952D01*
X135974819Y-118380952D02*
X136022438Y-118285714D01*
X136022438Y-118285714D02*
X136070057Y-118238095D01*
X136070057Y-118238095D02*
X136165295Y-118190476D01*
X136165295Y-118190476D02*
X136260533Y-118190476D01*
X136260533Y-118190476D02*
X136403390Y-118238095D01*
X136403390Y-118238095D02*
X136974819Y-118809523D01*
X136974819Y-118809523D02*
X136974819Y-118190476D01*
D10*
X130207419Y-123019048D02*
X130207419Y-123400000D01*
X130207419Y-123400000D02*
X129207419Y-123400000D01*
X130207419Y-122752381D02*
X129207419Y-122752381D01*
X129207419Y-122752381D02*
X129921704Y-122485715D01*
X129921704Y-122485715D02*
X129207419Y-122219048D01*
X129207419Y-122219048D02*
X130207419Y-122219048D01*
X129207419Y-121914286D02*
X129207419Y-121419048D01*
X129207419Y-121419048D02*
X129588371Y-121685714D01*
X129588371Y-121685714D02*
X129588371Y-121571429D01*
X129588371Y-121571429D02*
X129635990Y-121495238D01*
X129635990Y-121495238D02*
X129683609Y-121457143D01*
X129683609Y-121457143D02*
X129778847Y-121419048D01*
X129778847Y-121419048D02*
X130016942Y-121419048D01*
X130016942Y-121419048D02*
X130112180Y-121457143D01*
X130112180Y-121457143D02*
X130159800Y-121495238D01*
X130159800Y-121495238D02*
X130207419Y-121571429D01*
X130207419Y-121571429D02*
X130207419Y-121800000D01*
X130207419Y-121800000D02*
X130159800Y-121876191D01*
X130159800Y-121876191D02*
X130112180Y-121914286D01*
X130207419Y-120657143D02*
X130207419Y-121114286D01*
X130207419Y-120885714D02*
X129207419Y-120885714D01*
X129207419Y-120885714D02*
X129350276Y-120961905D01*
X129350276Y-120961905D02*
X129445514Y-121038095D01*
X129445514Y-121038095D02*
X129493133Y-121114286D01*
X129207419Y-120390476D02*
X129207419Y-119857142D01*
X129207419Y-119857142D02*
X130207419Y-120200000D01*
X130302657Y-119742857D02*
X130302657Y-119133333D01*
X129207419Y-119057142D02*
X129207419Y-118599999D01*
X130207419Y-118828571D02*
X129207419Y-118828571D01*
X129207419Y-118180951D02*
X129207419Y-118028570D01*
X129207419Y-118028570D02*
X129255038Y-117952380D01*
X129255038Y-117952380D02*
X129350276Y-117876189D01*
X129350276Y-117876189D02*
X129540752Y-117838094D01*
X129540752Y-117838094D02*
X129874085Y-117838094D01*
X129874085Y-117838094D02*
X130064561Y-117876189D01*
X130064561Y-117876189D02*
X130159800Y-117952380D01*
X130159800Y-117952380D02*
X130207419Y-118028570D01*
X130207419Y-118028570D02*
X130207419Y-118180951D01*
X130207419Y-118180951D02*
X130159800Y-118257142D01*
X130159800Y-118257142D02*
X130064561Y-118333332D01*
X130064561Y-118333332D02*
X129874085Y-118371428D01*
X129874085Y-118371428D02*
X129540752Y-118371428D01*
X129540752Y-118371428D02*
X129350276Y-118333332D01*
X129350276Y-118333332D02*
X129255038Y-118257142D01*
X129255038Y-118257142D02*
X129207419Y-118180951D01*
X129826466Y-117495237D02*
X129826466Y-116885714D01*
X129302657Y-116542857D02*
X129255038Y-116504761D01*
X129255038Y-116504761D02*
X129207419Y-116428571D01*
X129207419Y-116428571D02*
X129207419Y-116238095D01*
X129207419Y-116238095D02*
X129255038Y-116161904D01*
X129255038Y-116161904D02*
X129302657Y-116123809D01*
X129302657Y-116123809D02*
X129397895Y-116085714D01*
X129397895Y-116085714D02*
X129493133Y-116085714D01*
X129493133Y-116085714D02*
X129635990Y-116123809D01*
X129635990Y-116123809D02*
X130207419Y-116580952D01*
X130207419Y-116580952D02*
X130207419Y-116085714D01*
X129302657Y-115780952D02*
X129255038Y-115742856D01*
X129255038Y-115742856D02*
X129207419Y-115666666D01*
X129207419Y-115666666D02*
X129207419Y-115476190D01*
X129207419Y-115476190D02*
X129255038Y-115399999D01*
X129255038Y-115399999D02*
X129302657Y-115361904D01*
X129302657Y-115361904D02*
X129397895Y-115323809D01*
X129397895Y-115323809D02*
X129493133Y-115323809D01*
X129493133Y-115323809D02*
X129635990Y-115361904D01*
X129635990Y-115361904D02*
X130207419Y-115819047D01*
X130207419Y-115819047D02*
X130207419Y-115323809D01*
X129207419Y-114828570D02*
X129207419Y-114752380D01*
X129207419Y-114752380D02*
X129255038Y-114676189D01*
X129255038Y-114676189D02*
X129302657Y-114638094D01*
X129302657Y-114638094D02*
X129397895Y-114599999D01*
X129397895Y-114599999D02*
X129588371Y-114561904D01*
X129588371Y-114561904D02*
X129826466Y-114561904D01*
X129826466Y-114561904D02*
X130016942Y-114599999D01*
X130016942Y-114599999D02*
X130112180Y-114638094D01*
X130112180Y-114638094D02*
X130159800Y-114676189D01*
X130159800Y-114676189D02*
X130207419Y-114752380D01*
X130207419Y-114752380D02*
X130207419Y-114828570D01*
X130207419Y-114828570D02*
X130159800Y-114904761D01*
X130159800Y-114904761D02*
X130112180Y-114942856D01*
X130112180Y-114942856D02*
X130016942Y-114980951D01*
X130016942Y-114980951D02*
X129826466Y-115019047D01*
X129826466Y-115019047D02*
X129588371Y-115019047D01*
X129588371Y-115019047D02*
X129397895Y-114980951D01*
X129397895Y-114980951D02*
X129302657Y-114942856D01*
X129302657Y-114942856D02*
X129255038Y-114904761D01*
X129255038Y-114904761D02*
X129207419Y-114828570D01*
D11*
X127583333Y-128624819D02*
X127250000Y-128148628D01*
X127011905Y-128624819D02*
X127011905Y-127624819D01*
X127011905Y-127624819D02*
X127392857Y-127624819D01*
X127392857Y-127624819D02*
X127488095Y-127672438D01*
X127488095Y-127672438D02*
X127535714Y-127720057D01*
X127535714Y-127720057D02*
X127583333Y-127815295D01*
X127583333Y-127815295D02*
X127583333Y-127958152D01*
X127583333Y-127958152D02*
X127535714Y-128053390D01*
X127535714Y-128053390D02*
X127488095Y-128101009D01*
X127488095Y-128101009D02*
X127392857Y-128148628D01*
X127392857Y-128148628D02*
X127011905Y-128148628D01*
X128535714Y-128624819D02*
X127964286Y-128624819D01*
X128250000Y-128624819D02*
X128250000Y-127624819D01*
X128250000Y-127624819D02*
X128154762Y-127767676D01*
X128154762Y-127767676D02*
X128059524Y-127862914D01*
X128059524Y-127862914D02*
X127964286Y-127910533D01*
D10*
X126721428Y-123787419D02*
X127216666Y-123787419D01*
X127216666Y-123787419D02*
X126950000Y-124168371D01*
X126950000Y-124168371D02*
X127064285Y-124168371D01*
X127064285Y-124168371D02*
X127140476Y-124215990D01*
X127140476Y-124215990D02*
X127178571Y-124263609D01*
X127178571Y-124263609D02*
X127216666Y-124358847D01*
X127216666Y-124358847D02*
X127216666Y-124596942D01*
X127216666Y-124596942D02*
X127178571Y-124692180D01*
X127178571Y-124692180D02*
X127140476Y-124739800D01*
X127140476Y-124739800D02*
X127064285Y-124787419D01*
X127064285Y-124787419D02*
X126835714Y-124787419D01*
X126835714Y-124787419D02*
X126759523Y-124739800D01*
X126759523Y-124739800D02*
X126721428Y-124692180D01*
X127483333Y-123787419D02*
X127978571Y-123787419D01*
X127978571Y-123787419D02*
X127711905Y-124168371D01*
X127711905Y-124168371D02*
X127826190Y-124168371D01*
X127826190Y-124168371D02*
X127902381Y-124215990D01*
X127902381Y-124215990D02*
X127940476Y-124263609D01*
X127940476Y-124263609D02*
X127978571Y-124358847D01*
X127978571Y-124358847D02*
X127978571Y-124596942D01*
X127978571Y-124596942D02*
X127940476Y-124692180D01*
X127940476Y-124692180D02*
X127902381Y-124739800D01*
X127902381Y-124739800D02*
X127826190Y-124787419D01*
X127826190Y-124787419D02*
X127597619Y-124787419D01*
X127597619Y-124787419D02*
X127521428Y-124739800D01*
X127521428Y-124739800D02*
X127483333Y-124692180D01*
X128473810Y-123787419D02*
X128550000Y-123787419D01*
X128550000Y-123787419D02*
X128626191Y-123835038D01*
X128626191Y-123835038D02*
X128664286Y-123882657D01*
X128664286Y-123882657D02*
X128702381Y-123977895D01*
X128702381Y-123977895D02*
X128740476Y-124168371D01*
X128740476Y-124168371D02*
X128740476Y-124406466D01*
X128740476Y-124406466D02*
X128702381Y-124596942D01*
X128702381Y-124596942D02*
X128664286Y-124692180D01*
X128664286Y-124692180D02*
X128626191Y-124739800D01*
X128626191Y-124739800D02*
X128550000Y-124787419D01*
X128550000Y-124787419D02*
X128473810Y-124787419D01*
X128473810Y-124787419D02*
X128397619Y-124739800D01*
X128397619Y-124739800D02*
X128359524Y-124692180D01*
X128359524Y-124692180D02*
X128321429Y-124596942D01*
X128321429Y-124596942D02*
X128283333Y-124406466D01*
X128283333Y-124406466D02*
X128283333Y-124168371D01*
X128283333Y-124168371D02*
X128321429Y-123977895D01*
X128321429Y-123977895D02*
X128359524Y-123882657D01*
X128359524Y-123882657D02*
X128397619Y-123835038D01*
X128397619Y-123835038D02*
X128473810Y-123787419D01*
D11*
X142083333Y-96809580D02*
X142035714Y-96857200D01*
X142035714Y-96857200D02*
X141892857Y-96904819D01*
X141892857Y-96904819D02*
X141797619Y-96904819D01*
X141797619Y-96904819D02*
X141654762Y-96857200D01*
X141654762Y-96857200D02*
X141559524Y-96761961D01*
X141559524Y-96761961D02*
X141511905Y-96666723D01*
X141511905Y-96666723D02*
X141464286Y-96476247D01*
X141464286Y-96476247D02*
X141464286Y-96333390D01*
X141464286Y-96333390D02*
X141511905Y-96142914D01*
X141511905Y-96142914D02*
X141559524Y-96047676D01*
X141559524Y-96047676D02*
X141654762Y-95952438D01*
X141654762Y-95952438D02*
X141797619Y-95904819D01*
X141797619Y-95904819D02*
X141892857Y-95904819D01*
X141892857Y-95904819D02*
X142035714Y-95952438D01*
X142035714Y-95952438D02*
X142083333Y-96000057D01*
X143035714Y-96904819D02*
X142464286Y-96904819D01*
X142750000Y-96904819D02*
X142750000Y-95904819D01*
X142750000Y-95904819D02*
X142654762Y-96047676D01*
X142654762Y-96047676D02*
X142559524Y-96142914D01*
X142559524Y-96142914D02*
X142464286Y-96190533D01*
D10*
X141392856Y-101007419D02*
X140935713Y-101007419D01*
X141164285Y-101007419D02*
X141164285Y-100007419D01*
X141164285Y-100007419D02*
X141088094Y-100150276D01*
X141088094Y-100150276D02*
X141011904Y-100245514D01*
X141011904Y-100245514D02*
X140935713Y-100293133D01*
X141888095Y-100007419D02*
X141964285Y-100007419D01*
X141964285Y-100007419D02*
X142040476Y-100055038D01*
X142040476Y-100055038D02*
X142078571Y-100102657D01*
X142078571Y-100102657D02*
X142116666Y-100197895D01*
X142116666Y-100197895D02*
X142154761Y-100388371D01*
X142154761Y-100388371D02*
X142154761Y-100626466D01*
X142154761Y-100626466D02*
X142116666Y-100816942D01*
X142116666Y-100816942D02*
X142078571Y-100912180D01*
X142078571Y-100912180D02*
X142040476Y-100959800D01*
X142040476Y-100959800D02*
X141964285Y-101007419D01*
X141964285Y-101007419D02*
X141888095Y-101007419D01*
X141888095Y-101007419D02*
X141811904Y-100959800D01*
X141811904Y-100959800D02*
X141773809Y-100912180D01*
X141773809Y-100912180D02*
X141735714Y-100816942D01*
X141735714Y-100816942D02*
X141697618Y-100626466D01*
X141697618Y-100626466D02*
X141697618Y-100388371D01*
X141697618Y-100388371D02*
X141735714Y-100197895D01*
X141735714Y-100197895D02*
X141773809Y-100102657D01*
X141773809Y-100102657D02*
X141811904Y-100055038D01*
X141811904Y-100055038D02*
X141888095Y-100007419D01*
X142840476Y-100340752D02*
X142840476Y-101007419D01*
X142497619Y-100340752D02*
X142497619Y-100864561D01*
X142497619Y-100864561D02*
X142535714Y-100959800D01*
X142535714Y-100959800D02*
X142611904Y-101007419D01*
X142611904Y-101007419D02*
X142726190Y-101007419D01*
X142726190Y-101007419D02*
X142802381Y-100959800D01*
X142802381Y-100959800D02*
X142840476Y-100912180D01*
X143488095Y-100483609D02*
X143221429Y-100483609D01*
X143221429Y-101007419D02*
X143221429Y-100007419D01*
X143221429Y-100007419D02*
X143602381Y-100007419D01*
D11*
X141374819Y-114416666D02*
X140898628Y-114749999D01*
X141374819Y-114988094D02*
X140374819Y-114988094D01*
X140374819Y-114988094D02*
X140374819Y-114607142D01*
X140374819Y-114607142D02*
X140422438Y-114511904D01*
X140422438Y-114511904D02*
X140470057Y-114464285D01*
X140470057Y-114464285D02*
X140565295Y-114416666D01*
X140565295Y-114416666D02*
X140708152Y-114416666D01*
X140708152Y-114416666D02*
X140803390Y-114464285D01*
X140803390Y-114464285D02*
X140851009Y-114511904D01*
X140851009Y-114511904D02*
X140898628Y-114607142D01*
X140898628Y-114607142D02*
X140898628Y-114988094D01*
X140470057Y-114035713D02*
X140422438Y-113988094D01*
X140422438Y-113988094D02*
X140374819Y-113892856D01*
X140374819Y-113892856D02*
X140374819Y-113654761D01*
X140374819Y-113654761D02*
X140422438Y-113559523D01*
X140422438Y-113559523D02*
X140470057Y-113511904D01*
X140470057Y-113511904D02*
X140565295Y-113464285D01*
X140565295Y-113464285D02*
X140660533Y-113464285D01*
X140660533Y-113464285D02*
X140803390Y-113511904D01*
X140803390Y-113511904D02*
X141374819Y-114083332D01*
X141374819Y-114083332D02*
X141374819Y-113464285D01*
D10*
X136537419Y-115278571D02*
X136537419Y-114783333D01*
X136537419Y-114783333D02*
X136918371Y-115049999D01*
X136918371Y-115049999D02*
X136918371Y-114935714D01*
X136918371Y-114935714D02*
X136965990Y-114859523D01*
X136965990Y-114859523D02*
X137013609Y-114821428D01*
X137013609Y-114821428D02*
X137108847Y-114783333D01*
X137108847Y-114783333D02*
X137346942Y-114783333D01*
X137346942Y-114783333D02*
X137442180Y-114821428D01*
X137442180Y-114821428D02*
X137489800Y-114859523D01*
X137489800Y-114859523D02*
X137537419Y-114935714D01*
X137537419Y-114935714D02*
X137537419Y-115164285D01*
X137537419Y-115164285D02*
X137489800Y-115240476D01*
X137489800Y-115240476D02*
X137442180Y-115278571D01*
X136537419Y-114516666D02*
X136537419Y-114021428D01*
X136537419Y-114021428D02*
X136918371Y-114288094D01*
X136918371Y-114288094D02*
X136918371Y-114173809D01*
X136918371Y-114173809D02*
X136965990Y-114097618D01*
X136965990Y-114097618D02*
X137013609Y-114059523D01*
X137013609Y-114059523D02*
X137108847Y-114021428D01*
X137108847Y-114021428D02*
X137346942Y-114021428D01*
X137346942Y-114021428D02*
X137442180Y-114059523D01*
X137442180Y-114059523D02*
X137489800Y-114097618D01*
X137489800Y-114097618D02*
X137537419Y-114173809D01*
X137537419Y-114173809D02*
X137537419Y-114402380D01*
X137537419Y-114402380D02*
X137489800Y-114478571D01*
X137489800Y-114478571D02*
X137442180Y-114516666D01*
X136537419Y-113526189D02*
X136537419Y-113449999D01*
X136537419Y-113449999D02*
X136585038Y-113373808D01*
X136585038Y-113373808D02*
X136632657Y-113335713D01*
X136632657Y-113335713D02*
X136727895Y-113297618D01*
X136727895Y-113297618D02*
X136918371Y-113259523D01*
X136918371Y-113259523D02*
X137156466Y-113259523D01*
X137156466Y-113259523D02*
X137346942Y-113297618D01*
X137346942Y-113297618D02*
X137442180Y-113335713D01*
X137442180Y-113335713D02*
X137489800Y-113373808D01*
X137489800Y-113373808D02*
X137537419Y-113449999D01*
X137537419Y-113449999D02*
X137537419Y-113526189D01*
X137537419Y-113526189D02*
X137489800Y-113602380D01*
X137489800Y-113602380D02*
X137442180Y-113640475D01*
X137442180Y-113640475D02*
X137346942Y-113678570D01*
X137346942Y-113678570D02*
X137156466Y-113716666D01*
X137156466Y-113716666D02*
X136918371Y-113716666D01*
X136918371Y-113716666D02*
X136727895Y-113678570D01*
X136727895Y-113678570D02*
X136632657Y-113640475D01*
X136632657Y-113640475D02*
X136585038Y-113602380D01*
X136585038Y-113602380D02*
X136537419Y-113526189D01*
D11*
X127809819Y-90583333D02*
X128524104Y-90583333D01*
X128524104Y-90583333D02*
X128666961Y-90630952D01*
X128666961Y-90630952D02*
X128762200Y-90726190D01*
X128762200Y-90726190D02*
X128809819Y-90869047D01*
X128809819Y-90869047D02*
X128809819Y-90964285D01*
X127809819Y-90202380D02*
X127809819Y-89583333D01*
X127809819Y-89583333D02*
X128190771Y-89916666D01*
X128190771Y-89916666D02*
X128190771Y-89773809D01*
X128190771Y-89773809D02*
X128238390Y-89678571D01*
X128238390Y-89678571D02*
X128286009Y-89630952D01*
X128286009Y-89630952D02*
X128381247Y-89583333D01*
X128381247Y-89583333D02*
X128619342Y-89583333D01*
X128619342Y-89583333D02*
X128714580Y-89630952D01*
X128714580Y-89630952D02*
X128762200Y-89678571D01*
X128762200Y-89678571D02*
X128809819Y-89773809D01*
X128809819Y-89773809D02*
X128809819Y-90059523D01*
X128809819Y-90059523D02*
X128762200Y-90154761D01*
X128762200Y-90154761D02*
X128714580Y-90202380D01*
D10*
X118612180Y-97497619D02*
X118659800Y-97535715D01*
X118659800Y-97535715D02*
X118707419Y-97650000D01*
X118707419Y-97650000D02*
X118707419Y-97726191D01*
X118707419Y-97726191D02*
X118659800Y-97840477D01*
X118659800Y-97840477D02*
X118564561Y-97916667D01*
X118564561Y-97916667D02*
X118469323Y-97954762D01*
X118469323Y-97954762D02*
X118278847Y-97992858D01*
X118278847Y-97992858D02*
X118135990Y-97992858D01*
X118135990Y-97992858D02*
X117945514Y-97954762D01*
X117945514Y-97954762D02*
X117850276Y-97916667D01*
X117850276Y-97916667D02*
X117755038Y-97840477D01*
X117755038Y-97840477D02*
X117707419Y-97726191D01*
X117707419Y-97726191D02*
X117707419Y-97650000D01*
X117707419Y-97650000D02*
X117755038Y-97535715D01*
X117755038Y-97535715D02*
X117802657Y-97497619D01*
X118707419Y-97040477D02*
X118659800Y-97116667D01*
X118659800Y-97116667D02*
X118612180Y-97154762D01*
X118612180Y-97154762D02*
X118516942Y-97192858D01*
X118516942Y-97192858D02*
X118231228Y-97192858D01*
X118231228Y-97192858D02*
X118135990Y-97154762D01*
X118135990Y-97154762D02*
X118088371Y-97116667D01*
X118088371Y-97116667D02*
X118040752Y-97040477D01*
X118040752Y-97040477D02*
X118040752Y-96926191D01*
X118040752Y-96926191D02*
X118088371Y-96850000D01*
X118088371Y-96850000D02*
X118135990Y-96811905D01*
X118135990Y-96811905D02*
X118231228Y-96773810D01*
X118231228Y-96773810D02*
X118516942Y-96773810D01*
X118516942Y-96773810D02*
X118612180Y-96811905D01*
X118612180Y-96811905D02*
X118659800Y-96850000D01*
X118659800Y-96850000D02*
X118707419Y-96926191D01*
X118707419Y-96926191D02*
X118707419Y-97040477D01*
X118040752Y-96430952D02*
X118707419Y-96430952D01*
X118135990Y-96430952D02*
X118088371Y-96392857D01*
X118088371Y-96392857D02*
X118040752Y-96316667D01*
X118040752Y-96316667D02*
X118040752Y-96202381D01*
X118040752Y-96202381D02*
X118088371Y-96126190D01*
X118088371Y-96126190D02*
X118183609Y-96088095D01*
X118183609Y-96088095D02*
X118707419Y-96088095D01*
X118040752Y-95707142D02*
X118707419Y-95707142D01*
X118135990Y-95707142D02*
X118088371Y-95669047D01*
X118088371Y-95669047D02*
X118040752Y-95592857D01*
X118040752Y-95592857D02*
X118040752Y-95478571D01*
X118040752Y-95478571D02*
X118088371Y-95402380D01*
X118088371Y-95402380D02*
X118183609Y-95364285D01*
X118183609Y-95364285D02*
X118707419Y-95364285D01*
X118802657Y-95173809D02*
X118802657Y-94564285D01*
X117707419Y-94221427D02*
X117707419Y-94145237D01*
X117707419Y-94145237D02*
X117755038Y-94069046D01*
X117755038Y-94069046D02*
X117802657Y-94030951D01*
X117802657Y-94030951D02*
X117897895Y-93992856D01*
X117897895Y-93992856D02*
X118088371Y-93954761D01*
X118088371Y-93954761D02*
X118326466Y-93954761D01*
X118326466Y-93954761D02*
X118516942Y-93992856D01*
X118516942Y-93992856D02*
X118612180Y-94030951D01*
X118612180Y-94030951D02*
X118659800Y-94069046D01*
X118659800Y-94069046D02*
X118707419Y-94145237D01*
X118707419Y-94145237D02*
X118707419Y-94221427D01*
X118707419Y-94221427D02*
X118659800Y-94297618D01*
X118659800Y-94297618D02*
X118612180Y-94335713D01*
X118612180Y-94335713D02*
X118516942Y-94373808D01*
X118516942Y-94373808D02*
X118326466Y-94411904D01*
X118326466Y-94411904D02*
X118088371Y-94411904D01*
X118088371Y-94411904D02*
X117897895Y-94373808D01*
X117897895Y-94373808D02*
X117802657Y-94335713D01*
X117802657Y-94335713D02*
X117755038Y-94297618D01*
X117755038Y-94297618D02*
X117707419Y-94221427D01*
X118707419Y-93192856D02*
X118707419Y-93649999D01*
X118707419Y-93421427D02*
X117707419Y-93421427D01*
X117707419Y-93421427D02*
X117850276Y-93497618D01*
X117850276Y-93497618D02*
X117945514Y-93573808D01*
X117945514Y-93573808D02*
X117993133Y-93649999D01*
X118707419Y-92926189D02*
X118040752Y-92507141D01*
X118040752Y-92926189D02*
X118707419Y-92507141D01*
X117707419Y-92049998D02*
X117707419Y-91973808D01*
X117707419Y-91973808D02*
X117755038Y-91897617D01*
X117755038Y-91897617D02*
X117802657Y-91859522D01*
X117802657Y-91859522D02*
X117897895Y-91821427D01*
X117897895Y-91821427D02*
X118088371Y-91783332D01*
X118088371Y-91783332D02*
X118326466Y-91783332D01*
X118326466Y-91783332D02*
X118516942Y-91821427D01*
X118516942Y-91821427D02*
X118612180Y-91859522D01*
X118612180Y-91859522D02*
X118659800Y-91897617D01*
X118659800Y-91897617D02*
X118707419Y-91973808D01*
X118707419Y-91973808D02*
X118707419Y-92049998D01*
X118707419Y-92049998D02*
X118659800Y-92126189D01*
X118659800Y-92126189D02*
X118612180Y-92164284D01*
X118612180Y-92164284D02*
X118516942Y-92202379D01*
X118516942Y-92202379D02*
X118326466Y-92240475D01*
X118326466Y-92240475D02*
X118088371Y-92240475D01*
X118088371Y-92240475D02*
X117897895Y-92202379D01*
X117897895Y-92202379D02*
X117802657Y-92164284D01*
X117802657Y-92164284D02*
X117755038Y-92126189D01*
X117755038Y-92126189D02*
X117707419Y-92049998D01*
X117707419Y-91516665D02*
X117707419Y-91021427D01*
X117707419Y-91021427D02*
X118088371Y-91288093D01*
X118088371Y-91288093D02*
X118088371Y-91173808D01*
X118088371Y-91173808D02*
X118135990Y-91097617D01*
X118135990Y-91097617D02*
X118183609Y-91059522D01*
X118183609Y-91059522D02*
X118278847Y-91021427D01*
X118278847Y-91021427D02*
X118516942Y-91021427D01*
X118516942Y-91021427D02*
X118612180Y-91059522D01*
X118612180Y-91059522D02*
X118659800Y-91097617D01*
X118659800Y-91097617D02*
X118707419Y-91173808D01*
X118707419Y-91173808D02*
X118707419Y-91402379D01*
X118707419Y-91402379D02*
X118659800Y-91478570D01*
X118659800Y-91478570D02*
X118612180Y-91516665D01*
X118802657Y-90869046D02*
X118802657Y-90259522D01*
X118707419Y-90069045D02*
X117707419Y-90069045D01*
X117707419Y-90069045D02*
X117707419Y-89764283D01*
X117707419Y-89764283D02*
X117755038Y-89688093D01*
X117755038Y-89688093D02*
X117802657Y-89649998D01*
X117802657Y-89649998D02*
X117897895Y-89611902D01*
X117897895Y-89611902D02*
X118040752Y-89611902D01*
X118040752Y-89611902D02*
X118135990Y-89649998D01*
X118135990Y-89649998D02*
X118183609Y-89688093D01*
X118183609Y-89688093D02*
X118231228Y-89764283D01*
X118231228Y-89764283D02*
X118231228Y-90069045D01*
X118707419Y-89269045D02*
X118040752Y-89269045D01*
X117707419Y-89269045D02*
X117755038Y-89307141D01*
X117755038Y-89307141D02*
X117802657Y-89269045D01*
X117802657Y-89269045D02*
X117755038Y-89230950D01*
X117755038Y-89230950D02*
X117707419Y-89269045D01*
X117707419Y-89269045D02*
X117802657Y-89269045D01*
X118040752Y-88888093D02*
X118707419Y-88888093D01*
X118135990Y-88888093D02*
X118088371Y-88849998D01*
X118088371Y-88849998D02*
X118040752Y-88773808D01*
X118040752Y-88773808D02*
X118040752Y-88659522D01*
X118040752Y-88659522D02*
X118088371Y-88583331D01*
X118088371Y-88583331D02*
X118183609Y-88545236D01*
X118183609Y-88545236D02*
X118707419Y-88545236D01*
D11*
X142454819Y-120238094D02*
X141454819Y-120238094D01*
X141454819Y-120238094D02*
X141454819Y-119999999D01*
X141454819Y-119999999D02*
X141502438Y-119857142D01*
X141502438Y-119857142D02*
X141597676Y-119761904D01*
X141597676Y-119761904D02*
X141692914Y-119714285D01*
X141692914Y-119714285D02*
X141883390Y-119666666D01*
X141883390Y-119666666D02*
X142026247Y-119666666D01*
X142026247Y-119666666D02*
X142216723Y-119714285D01*
X142216723Y-119714285D02*
X142311961Y-119761904D01*
X142311961Y-119761904D02*
X142407200Y-119857142D01*
X142407200Y-119857142D02*
X142454819Y-119999999D01*
X142454819Y-119999999D02*
X142454819Y-120238094D01*
X142454819Y-118714285D02*
X142454819Y-119285713D01*
X142454819Y-118999999D02*
X141454819Y-118999999D01*
X141454819Y-118999999D02*
X141597676Y-119095237D01*
X141597676Y-119095237D02*
X141692914Y-119190475D01*
X141692914Y-119190475D02*
X141740533Y-119285713D01*
D10*
X138747419Y-124034285D02*
X138747419Y-124415237D01*
X138747419Y-124415237D02*
X137747419Y-124415237D01*
X138223609Y-123767618D02*
X138223609Y-123500952D01*
X138747419Y-123386666D02*
X138747419Y-123767618D01*
X138747419Y-123767618D02*
X137747419Y-123767618D01*
X137747419Y-123767618D02*
X137747419Y-123386666D01*
X138747419Y-123043808D02*
X137747419Y-123043808D01*
X137747419Y-123043808D02*
X137747419Y-122853332D01*
X137747419Y-122853332D02*
X137795038Y-122739046D01*
X137795038Y-122739046D02*
X137890276Y-122662856D01*
X137890276Y-122662856D02*
X137985514Y-122624761D01*
X137985514Y-122624761D02*
X138175990Y-122586665D01*
X138175990Y-122586665D02*
X138318847Y-122586665D01*
X138318847Y-122586665D02*
X138509323Y-122624761D01*
X138509323Y-122624761D02*
X138604561Y-122662856D01*
X138604561Y-122662856D02*
X138699800Y-122739046D01*
X138699800Y-122739046D02*
X138747419Y-122853332D01*
X138747419Y-122853332D02*
X138747419Y-123043808D01*
D11*
X141704819Y-104416666D02*
X141228628Y-104749999D01*
X141704819Y-104988094D02*
X140704819Y-104988094D01*
X140704819Y-104988094D02*
X140704819Y-104607142D01*
X140704819Y-104607142D02*
X140752438Y-104511904D01*
X140752438Y-104511904D02*
X140800057Y-104464285D01*
X140800057Y-104464285D02*
X140895295Y-104416666D01*
X140895295Y-104416666D02*
X141038152Y-104416666D01*
X141038152Y-104416666D02*
X141133390Y-104464285D01*
X141133390Y-104464285D02*
X141181009Y-104511904D01*
X141181009Y-104511904D02*
X141228628Y-104607142D01*
X141228628Y-104607142D02*
X141228628Y-104988094D01*
X140704819Y-104083332D02*
X140704819Y-103464285D01*
X140704819Y-103464285D02*
X141085771Y-103797618D01*
X141085771Y-103797618D02*
X141085771Y-103654761D01*
X141085771Y-103654761D02*
X141133390Y-103559523D01*
X141133390Y-103559523D02*
X141181009Y-103511904D01*
X141181009Y-103511904D02*
X141276247Y-103464285D01*
X141276247Y-103464285D02*
X141514342Y-103464285D01*
X141514342Y-103464285D02*
X141609580Y-103511904D01*
X141609580Y-103511904D02*
X141657200Y-103559523D01*
X141657200Y-103559523D02*
X141704819Y-103654761D01*
X141704819Y-103654761D02*
X141704819Y-103940475D01*
X141704819Y-103940475D02*
X141657200Y-104035713D01*
X141657200Y-104035713D02*
X141609580Y-104083332D01*
D10*
X140787419Y-108071428D02*
X140787419Y-108452380D01*
X140787419Y-108452380D02*
X141263609Y-108490476D01*
X141263609Y-108490476D02*
X141215990Y-108452380D01*
X141215990Y-108452380D02*
X141168371Y-108376190D01*
X141168371Y-108376190D02*
X141168371Y-108185714D01*
X141168371Y-108185714D02*
X141215990Y-108109523D01*
X141215990Y-108109523D02*
X141263609Y-108071428D01*
X141263609Y-108071428D02*
X141358847Y-108033333D01*
X141358847Y-108033333D02*
X141596942Y-108033333D01*
X141596942Y-108033333D02*
X141692180Y-108071428D01*
X141692180Y-108071428D02*
X141739800Y-108109523D01*
X141739800Y-108109523D02*
X141787419Y-108185714D01*
X141787419Y-108185714D02*
X141787419Y-108376190D01*
X141787419Y-108376190D02*
X141739800Y-108452380D01*
X141739800Y-108452380D02*
X141692180Y-108490476D01*
X140787419Y-107347618D02*
X140787419Y-107499999D01*
X140787419Y-107499999D02*
X140835038Y-107576190D01*
X140835038Y-107576190D02*
X140882657Y-107614285D01*
X140882657Y-107614285D02*
X141025514Y-107690475D01*
X141025514Y-107690475D02*
X141215990Y-107728571D01*
X141215990Y-107728571D02*
X141596942Y-107728571D01*
X141596942Y-107728571D02*
X141692180Y-107690475D01*
X141692180Y-107690475D02*
X141739800Y-107652380D01*
X141739800Y-107652380D02*
X141787419Y-107576190D01*
X141787419Y-107576190D02*
X141787419Y-107423809D01*
X141787419Y-107423809D02*
X141739800Y-107347618D01*
X141739800Y-107347618D02*
X141692180Y-107309523D01*
X141692180Y-107309523D02*
X141596942Y-107271428D01*
X141596942Y-107271428D02*
X141358847Y-107271428D01*
X141358847Y-107271428D02*
X141263609Y-107309523D01*
X141263609Y-107309523D02*
X141215990Y-107347618D01*
X141215990Y-107347618D02*
X141168371Y-107423809D01*
X141168371Y-107423809D02*
X141168371Y-107576190D01*
X141168371Y-107576190D02*
X141215990Y-107652380D01*
X141215990Y-107652380D02*
X141263609Y-107690475D01*
X141263609Y-107690475D02*
X141358847Y-107728571D01*
X140787419Y-106776189D02*
X140787419Y-106699999D01*
X140787419Y-106699999D02*
X140835038Y-106623808D01*
X140835038Y-106623808D02*
X140882657Y-106585713D01*
X140882657Y-106585713D02*
X140977895Y-106547618D01*
X140977895Y-106547618D02*
X141168371Y-106509523D01*
X141168371Y-106509523D02*
X141406466Y-106509523D01*
X141406466Y-106509523D02*
X141596942Y-106547618D01*
X141596942Y-106547618D02*
X141692180Y-106585713D01*
X141692180Y-106585713D02*
X141739800Y-106623808D01*
X141739800Y-106623808D02*
X141787419Y-106699999D01*
X141787419Y-106699999D02*
X141787419Y-106776189D01*
X141787419Y-106776189D02*
X141739800Y-106852380D01*
X141739800Y-106852380D02*
X141692180Y-106890475D01*
X141692180Y-106890475D02*
X141596942Y-106928570D01*
X141596942Y-106928570D02*
X141406466Y-106966666D01*
X141406466Y-106966666D02*
X141168371Y-106966666D01*
X141168371Y-106966666D02*
X140977895Y-106928570D01*
X140977895Y-106928570D02*
X140882657Y-106890475D01*
X140882657Y-106890475D02*
X140835038Y-106852380D01*
X140835038Y-106852380D02*
X140787419Y-106776189D01*
D11*
X131704819Y-133583333D02*
X132419104Y-133583333D01*
X132419104Y-133583333D02*
X132561961Y-133630952D01*
X132561961Y-133630952D02*
X132657200Y-133726190D01*
X132657200Y-133726190D02*
X132704819Y-133869047D01*
X132704819Y-133869047D02*
X132704819Y-133964285D01*
X131704819Y-133202380D02*
X131704819Y-132535714D01*
X131704819Y-132535714D02*
X132704819Y-132964285D01*
D10*
X134329800Y-138340477D02*
X134377419Y-138226191D01*
X134377419Y-138226191D02*
X134377419Y-138035715D01*
X134377419Y-138035715D02*
X134329800Y-137959524D01*
X134329800Y-137959524D02*
X134282180Y-137921429D01*
X134282180Y-137921429D02*
X134186942Y-137883334D01*
X134186942Y-137883334D02*
X134091704Y-137883334D01*
X134091704Y-137883334D02*
X133996466Y-137921429D01*
X133996466Y-137921429D02*
X133948847Y-137959524D01*
X133948847Y-137959524D02*
X133901228Y-138035715D01*
X133901228Y-138035715D02*
X133853609Y-138188096D01*
X133853609Y-138188096D02*
X133805990Y-138264286D01*
X133805990Y-138264286D02*
X133758371Y-138302381D01*
X133758371Y-138302381D02*
X133663133Y-138340477D01*
X133663133Y-138340477D02*
X133567895Y-138340477D01*
X133567895Y-138340477D02*
X133472657Y-138302381D01*
X133472657Y-138302381D02*
X133425038Y-138264286D01*
X133425038Y-138264286D02*
X133377419Y-138188096D01*
X133377419Y-138188096D02*
X133377419Y-137997619D01*
X133377419Y-137997619D02*
X133425038Y-137883334D01*
X134329800Y-137197619D02*
X134377419Y-137273810D01*
X134377419Y-137273810D02*
X134377419Y-137426191D01*
X134377419Y-137426191D02*
X134329800Y-137502381D01*
X134329800Y-137502381D02*
X134282180Y-137540476D01*
X134282180Y-137540476D02*
X134186942Y-137578572D01*
X134186942Y-137578572D02*
X133901228Y-137578572D01*
X133901228Y-137578572D02*
X133805990Y-137540476D01*
X133805990Y-137540476D02*
X133758371Y-137502381D01*
X133758371Y-137502381D02*
X133710752Y-137426191D01*
X133710752Y-137426191D02*
X133710752Y-137273810D01*
X133710752Y-137273810D02*
X133758371Y-137197619D01*
X134377419Y-136854762D02*
X133710752Y-136854762D01*
X133901228Y-136854762D02*
X133805990Y-136816667D01*
X133805990Y-136816667D02*
X133758371Y-136778572D01*
X133758371Y-136778572D02*
X133710752Y-136702381D01*
X133710752Y-136702381D02*
X133710752Y-136626191D01*
X134329800Y-136054762D02*
X134377419Y-136130953D01*
X134377419Y-136130953D02*
X134377419Y-136283334D01*
X134377419Y-136283334D02*
X134329800Y-136359524D01*
X134329800Y-136359524D02*
X134234561Y-136397620D01*
X134234561Y-136397620D02*
X133853609Y-136397620D01*
X133853609Y-136397620D02*
X133758371Y-136359524D01*
X133758371Y-136359524D02*
X133710752Y-136283334D01*
X133710752Y-136283334D02*
X133710752Y-136130953D01*
X133710752Y-136130953D02*
X133758371Y-136054762D01*
X133758371Y-136054762D02*
X133853609Y-136016667D01*
X133853609Y-136016667D02*
X133948847Y-136016667D01*
X133948847Y-136016667D02*
X134044085Y-136397620D01*
X133710752Y-135750001D02*
X134377419Y-135597620D01*
X134377419Y-135597620D02*
X133901228Y-135445239D01*
X133901228Y-135445239D02*
X134377419Y-135292858D01*
X134377419Y-135292858D02*
X133710752Y-135140477D01*
X134472657Y-135026192D02*
X134472657Y-134416668D01*
X133377419Y-134340477D02*
X133377419Y-133883334D01*
X134377419Y-134111906D02*
X133377419Y-134111906D01*
X134329800Y-133311905D02*
X134377419Y-133388096D01*
X134377419Y-133388096D02*
X134377419Y-133540477D01*
X134377419Y-133540477D02*
X134329800Y-133616667D01*
X134329800Y-133616667D02*
X134234561Y-133654763D01*
X134234561Y-133654763D02*
X133853609Y-133654763D01*
X133853609Y-133654763D02*
X133758371Y-133616667D01*
X133758371Y-133616667D02*
X133710752Y-133540477D01*
X133710752Y-133540477D02*
X133710752Y-133388096D01*
X133710752Y-133388096D02*
X133758371Y-133311905D01*
X133758371Y-133311905D02*
X133853609Y-133273810D01*
X133853609Y-133273810D02*
X133948847Y-133273810D01*
X133948847Y-133273810D02*
X134044085Y-133654763D01*
X134377419Y-132930953D02*
X133710752Y-132930953D01*
X133901228Y-132930953D02*
X133805990Y-132892858D01*
X133805990Y-132892858D02*
X133758371Y-132854763D01*
X133758371Y-132854763D02*
X133710752Y-132778572D01*
X133710752Y-132778572D02*
X133710752Y-132702382D01*
X134377419Y-132435715D02*
X133710752Y-132435715D01*
X133805990Y-132435715D02*
X133758371Y-132397620D01*
X133758371Y-132397620D02*
X133710752Y-132321430D01*
X133710752Y-132321430D02*
X133710752Y-132207144D01*
X133710752Y-132207144D02*
X133758371Y-132130953D01*
X133758371Y-132130953D02*
X133853609Y-132092858D01*
X133853609Y-132092858D02*
X134377419Y-132092858D01*
X133853609Y-132092858D02*
X133758371Y-132054763D01*
X133758371Y-132054763D02*
X133710752Y-131978572D01*
X133710752Y-131978572D02*
X133710752Y-131864287D01*
X133710752Y-131864287D02*
X133758371Y-131788096D01*
X133758371Y-131788096D02*
X133853609Y-131750001D01*
X133853609Y-131750001D02*
X134377419Y-131750001D01*
X134377419Y-131369048D02*
X133710752Y-131369048D01*
X133377419Y-131369048D02*
X133425038Y-131407144D01*
X133425038Y-131407144D02*
X133472657Y-131369048D01*
X133472657Y-131369048D02*
X133425038Y-131330953D01*
X133425038Y-131330953D02*
X133377419Y-131369048D01*
X133377419Y-131369048D02*
X133472657Y-131369048D01*
X133710752Y-130988096D02*
X134377419Y-130988096D01*
X133805990Y-130988096D02*
X133758371Y-130950001D01*
X133758371Y-130950001D02*
X133710752Y-130873811D01*
X133710752Y-130873811D02*
X133710752Y-130759525D01*
X133710752Y-130759525D02*
X133758371Y-130683334D01*
X133758371Y-130683334D02*
X133853609Y-130645239D01*
X133853609Y-130645239D02*
X134377419Y-130645239D01*
X134377419Y-129921429D02*
X133853609Y-129921429D01*
X133853609Y-129921429D02*
X133758371Y-129959524D01*
X133758371Y-129959524D02*
X133710752Y-130035715D01*
X133710752Y-130035715D02*
X133710752Y-130188096D01*
X133710752Y-130188096D02*
X133758371Y-130264286D01*
X134329800Y-129921429D02*
X134377419Y-129997620D01*
X134377419Y-129997620D02*
X134377419Y-130188096D01*
X134377419Y-130188096D02*
X134329800Y-130264286D01*
X134329800Y-130264286D02*
X134234561Y-130302382D01*
X134234561Y-130302382D02*
X134139323Y-130302382D01*
X134139323Y-130302382D02*
X134044085Y-130264286D01*
X134044085Y-130264286D02*
X133996466Y-130188096D01*
X133996466Y-130188096D02*
X133996466Y-129997620D01*
X133996466Y-129997620D02*
X133948847Y-129921429D01*
X134377419Y-129426191D02*
X134329800Y-129502381D01*
X134329800Y-129502381D02*
X134234561Y-129540476D01*
X134234561Y-129540476D02*
X133377419Y-129540476D01*
X134472657Y-129311905D02*
X134472657Y-128702381D01*
X133377419Y-128359523D02*
X133377419Y-128283333D01*
X133377419Y-128283333D02*
X133425038Y-128207142D01*
X133425038Y-128207142D02*
X133472657Y-128169047D01*
X133472657Y-128169047D02*
X133567895Y-128130952D01*
X133567895Y-128130952D02*
X133758371Y-128092857D01*
X133758371Y-128092857D02*
X133996466Y-128092857D01*
X133996466Y-128092857D02*
X134186942Y-128130952D01*
X134186942Y-128130952D02*
X134282180Y-128169047D01*
X134282180Y-128169047D02*
X134329800Y-128207142D01*
X134329800Y-128207142D02*
X134377419Y-128283333D01*
X134377419Y-128283333D02*
X134377419Y-128359523D01*
X134377419Y-128359523D02*
X134329800Y-128435714D01*
X134329800Y-128435714D02*
X134282180Y-128473809D01*
X134282180Y-128473809D02*
X134186942Y-128511904D01*
X134186942Y-128511904D02*
X133996466Y-128550000D01*
X133996466Y-128550000D02*
X133758371Y-128550000D01*
X133758371Y-128550000D02*
X133567895Y-128511904D01*
X133567895Y-128511904D02*
X133472657Y-128473809D01*
X133472657Y-128473809D02*
X133425038Y-128435714D01*
X133425038Y-128435714D02*
X133377419Y-128359523D01*
X134377419Y-127330952D02*
X134377419Y-127788095D01*
X134377419Y-127559523D02*
X133377419Y-127559523D01*
X133377419Y-127559523D02*
X133520276Y-127635714D01*
X133520276Y-127635714D02*
X133615514Y-127711904D01*
X133615514Y-127711904D02*
X133663133Y-127788095D01*
X134377419Y-127064285D02*
X133710752Y-126645237D01*
X133710752Y-127064285D02*
X134377419Y-126645237D01*
X133377419Y-126188094D02*
X133377419Y-126111904D01*
X133377419Y-126111904D02*
X133425038Y-126035713D01*
X133425038Y-126035713D02*
X133472657Y-125997618D01*
X133472657Y-125997618D02*
X133567895Y-125959523D01*
X133567895Y-125959523D02*
X133758371Y-125921428D01*
X133758371Y-125921428D02*
X133996466Y-125921428D01*
X133996466Y-125921428D02*
X134186942Y-125959523D01*
X134186942Y-125959523D02*
X134282180Y-125997618D01*
X134282180Y-125997618D02*
X134329800Y-126035713D01*
X134329800Y-126035713D02*
X134377419Y-126111904D01*
X134377419Y-126111904D02*
X134377419Y-126188094D01*
X134377419Y-126188094D02*
X134329800Y-126264285D01*
X134329800Y-126264285D02*
X134282180Y-126302380D01*
X134282180Y-126302380D02*
X134186942Y-126340475D01*
X134186942Y-126340475D02*
X133996466Y-126378571D01*
X133996466Y-126378571D02*
X133758371Y-126378571D01*
X133758371Y-126378571D02*
X133567895Y-126340475D01*
X133567895Y-126340475D02*
X133472657Y-126302380D01*
X133472657Y-126302380D02*
X133425038Y-126264285D01*
X133425038Y-126264285D02*
X133377419Y-126188094D01*
X133472657Y-125616666D02*
X133425038Y-125578570D01*
X133425038Y-125578570D02*
X133377419Y-125502380D01*
X133377419Y-125502380D02*
X133377419Y-125311904D01*
X133377419Y-125311904D02*
X133425038Y-125235713D01*
X133425038Y-125235713D02*
X133472657Y-125197618D01*
X133472657Y-125197618D02*
X133567895Y-125159523D01*
X133567895Y-125159523D02*
X133663133Y-125159523D01*
X133663133Y-125159523D02*
X133805990Y-125197618D01*
X133805990Y-125197618D02*
X134377419Y-125654761D01*
X134377419Y-125654761D02*
X134377419Y-125159523D01*
D11*
X124833333Y-94809580D02*
X124785714Y-94857200D01*
X124785714Y-94857200D02*
X124642857Y-94904819D01*
X124642857Y-94904819D02*
X124547619Y-94904819D01*
X124547619Y-94904819D02*
X124404762Y-94857200D01*
X124404762Y-94857200D02*
X124309524Y-94761961D01*
X124309524Y-94761961D02*
X124261905Y-94666723D01*
X124261905Y-94666723D02*
X124214286Y-94476247D01*
X124214286Y-94476247D02*
X124214286Y-94333390D01*
X124214286Y-94333390D02*
X124261905Y-94142914D01*
X124261905Y-94142914D02*
X124309524Y-94047676D01*
X124309524Y-94047676D02*
X124404762Y-93952438D01*
X124404762Y-93952438D02*
X124547619Y-93904819D01*
X124547619Y-93904819D02*
X124642857Y-93904819D01*
X124642857Y-93904819D02*
X124785714Y-93952438D01*
X124785714Y-93952438D02*
X124833333Y-94000057D01*
X125166667Y-93904819D02*
X125785714Y-93904819D01*
X125785714Y-93904819D02*
X125452381Y-94285771D01*
X125452381Y-94285771D02*
X125595238Y-94285771D01*
X125595238Y-94285771D02*
X125690476Y-94333390D01*
X125690476Y-94333390D02*
X125738095Y-94381009D01*
X125738095Y-94381009D02*
X125785714Y-94476247D01*
X125785714Y-94476247D02*
X125785714Y-94714342D01*
X125785714Y-94714342D02*
X125738095Y-94809580D01*
X125738095Y-94809580D02*
X125690476Y-94857200D01*
X125690476Y-94857200D02*
X125595238Y-94904819D01*
X125595238Y-94904819D02*
X125309524Y-94904819D01*
X125309524Y-94904819D02*
X125214286Y-94857200D01*
X125214286Y-94857200D02*
X125166667Y-94809580D01*
D10*
X123685714Y-98007419D02*
X123761904Y-98007419D01*
X123761904Y-98007419D02*
X123838095Y-98055038D01*
X123838095Y-98055038D02*
X123876190Y-98102657D01*
X123876190Y-98102657D02*
X123914285Y-98197895D01*
X123914285Y-98197895D02*
X123952380Y-98388371D01*
X123952380Y-98388371D02*
X123952380Y-98626466D01*
X123952380Y-98626466D02*
X123914285Y-98816942D01*
X123914285Y-98816942D02*
X123876190Y-98912180D01*
X123876190Y-98912180D02*
X123838095Y-98959800D01*
X123838095Y-98959800D02*
X123761904Y-99007419D01*
X123761904Y-99007419D02*
X123685714Y-99007419D01*
X123685714Y-99007419D02*
X123609523Y-98959800D01*
X123609523Y-98959800D02*
X123571428Y-98912180D01*
X123571428Y-98912180D02*
X123533333Y-98816942D01*
X123533333Y-98816942D02*
X123495237Y-98626466D01*
X123495237Y-98626466D02*
X123495237Y-98388371D01*
X123495237Y-98388371D02*
X123533333Y-98197895D01*
X123533333Y-98197895D02*
X123571428Y-98102657D01*
X123571428Y-98102657D02*
X123609523Y-98055038D01*
X123609523Y-98055038D02*
X123685714Y-98007419D01*
X124295238Y-98912180D02*
X124333333Y-98959800D01*
X124333333Y-98959800D02*
X124295238Y-99007419D01*
X124295238Y-99007419D02*
X124257142Y-98959800D01*
X124257142Y-98959800D02*
X124295238Y-98912180D01*
X124295238Y-98912180D02*
X124295238Y-99007419D01*
X125095237Y-99007419D02*
X124638094Y-99007419D01*
X124866666Y-99007419D02*
X124866666Y-98007419D01*
X124866666Y-98007419D02*
X124790475Y-98150276D01*
X124790475Y-98150276D02*
X124714285Y-98245514D01*
X124714285Y-98245514D02*
X124638094Y-98293133D01*
X125780952Y-98340752D02*
X125780952Y-99007419D01*
X125438095Y-98340752D02*
X125438095Y-98864561D01*
X125438095Y-98864561D02*
X125476190Y-98959800D01*
X125476190Y-98959800D02*
X125552380Y-99007419D01*
X125552380Y-99007419D02*
X125666666Y-99007419D01*
X125666666Y-99007419D02*
X125742857Y-98959800D01*
X125742857Y-98959800D02*
X125780952Y-98912180D01*
X126428571Y-98483609D02*
X126161905Y-98483609D01*
X126161905Y-99007419D02*
X126161905Y-98007419D01*
X126161905Y-98007419D02*
X126542857Y-98007419D01*
D11*
X130103580Y-95116666D02*
X130151200Y-95164285D01*
X130151200Y-95164285D02*
X130198819Y-95307142D01*
X130198819Y-95307142D02*
X130198819Y-95402380D01*
X130198819Y-95402380D02*
X130151200Y-95545237D01*
X130151200Y-95545237D02*
X130055961Y-95640475D01*
X130055961Y-95640475D02*
X129960723Y-95688094D01*
X129960723Y-95688094D02*
X129770247Y-95735713D01*
X129770247Y-95735713D02*
X129627390Y-95735713D01*
X129627390Y-95735713D02*
X129436914Y-95688094D01*
X129436914Y-95688094D02*
X129341676Y-95640475D01*
X129341676Y-95640475D02*
X129246438Y-95545237D01*
X129246438Y-95545237D02*
X129198819Y-95402380D01*
X129198819Y-95402380D02*
X129198819Y-95307142D01*
X129198819Y-95307142D02*
X129246438Y-95164285D01*
X129246438Y-95164285D02*
X129294057Y-95116666D01*
X129294057Y-94735713D02*
X129246438Y-94688094D01*
X129246438Y-94688094D02*
X129198819Y-94592856D01*
X129198819Y-94592856D02*
X129198819Y-94354761D01*
X129198819Y-94354761D02*
X129246438Y-94259523D01*
X129246438Y-94259523D02*
X129294057Y-94211904D01*
X129294057Y-94211904D02*
X129389295Y-94164285D01*
X129389295Y-94164285D02*
X129484533Y-94164285D01*
X129484533Y-94164285D02*
X129627390Y-94211904D01*
X129627390Y-94211904D02*
X130198819Y-94783332D01*
X130198819Y-94783332D02*
X130198819Y-94164285D01*
D10*
X130657419Y-92976190D02*
X130657419Y-93433333D01*
X130657419Y-93204761D02*
X129657419Y-93204761D01*
X129657419Y-93204761D02*
X129800276Y-93280952D01*
X129800276Y-93280952D02*
X129895514Y-93357142D01*
X129895514Y-93357142D02*
X129943133Y-93433333D01*
X129990752Y-92290475D02*
X130657419Y-92290475D01*
X129990752Y-92633332D02*
X130514561Y-92633332D01*
X130514561Y-92633332D02*
X130609800Y-92595237D01*
X130609800Y-92595237D02*
X130657419Y-92519047D01*
X130657419Y-92519047D02*
X130657419Y-92404761D01*
X130657419Y-92404761D02*
X130609800Y-92328570D01*
X130609800Y-92328570D02*
X130562180Y-92290475D01*
X130133609Y-91642856D02*
X130133609Y-91909522D01*
X130657419Y-91909522D02*
X129657419Y-91909522D01*
X129657419Y-91909522D02*
X129657419Y-91528570D01*
D11*
X138812666Y-88562819D02*
X138812666Y-89277104D01*
X138812666Y-89277104D02*
X138765047Y-89419961D01*
X138765047Y-89419961D02*
X138669809Y-89515200D01*
X138669809Y-89515200D02*
X138526952Y-89562819D01*
X138526952Y-89562819D02*
X138431714Y-89562819D01*
X139765047Y-88562819D02*
X139288857Y-88562819D01*
X139288857Y-88562819D02*
X139241238Y-89039009D01*
X139241238Y-89039009D02*
X139288857Y-88991390D01*
X139288857Y-88991390D02*
X139384095Y-88943771D01*
X139384095Y-88943771D02*
X139622190Y-88943771D01*
X139622190Y-88943771D02*
X139717428Y-88991390D01*
X139717428Y-88991390D02*
X139765047Y-89039009D01*
X139765047Y-89039009D02*
X139812666Y-89134247D01*
X139812666Y-89134247D02*
X139812666Y-89372342D01*
X139812666Y-89372342D02*
X139765047Y-89467580D01*
X139765047Y-89467580D02*
X139717428Y-89515200D01*
X139717428Y-89515200D02*
X139622190Y-89562819D01*
X139622190Y-89562819D02*
X139384095Y-89562819D01*
X139384095Y-89562819D02*
X139288857Y-89515200D01*
X139288857Y-89515200D02*
X139241238Y-89467580D01*
X120966666Y-111454819D02*
X120966666Y-112169104D01*
X120966666Y-112169104D02*
X120919047Y-112311961D01*
X120919047Y-112311961D02*
X120823809Y-112407200D01*
X120823809Y-112407200D02*
X120680952Y-112454819D01*
X120680952Y-112454819D02*
X120585714Y-112454819D01*
X121871428Y-111454819D02*
X121680952Y-111454819D01*
X121680952Y-111454819D02*
X121585714Y-111502438D01*
X121585714Y-111502438D02*
X121538095Y-111550057D01*
X121538095Y-111550057D02*
X121442857Y-111692914D01*
X121442857Y-111692914D02*
X121395238Y-111883390D01*
X121395238Y-111883390D02*
X121395238Y-112264342D01*
X121395238Y-112264342D02*
X121442857Y-112359580D01*
X121442857Y-112359580D02*
X121490476Y-112407200D01*
X121490476Y-112407200D02*
X121585714Y-112454819D01*
X121585714Y-112454819D02*
X121776190Y-112454819D01*
X121776190Y-112454819D02*
X121871428Y-112407200D01*
X121871428Y-112407200D02*
X121919047Y-112359580D01*
X121919047Y-112359580D02*
X121966666Y-112264342D01*
X121966666Y-112264342D02*
X121966666Y-112026247D01*
X121966666Y-112026247D02*
X121919047Y-111931009D01*
X121919047Y-111931009D02*
X121871428Y-111883390D01*
X121871428Y-111883390D02*
X121776190Y-111835771D01*
X121776190Y-111835771D02*
X121585714Y-111835771D01*
X121585714Y-111835771D02*
X121490476Y-111883390D01*
X121490476Y-111883390D02*
X121442857Y-111931009D01*
X121442857Y-111931009D02*
X121395238Y-112026247D01*
D10*
X118280951Y-100433609D02*
X118395237Y-100481228D01*
X118395237Y-100481228D02*
X118433332Y-100528847D01*
X118433332Y-100528847D02*
X118471428Y-100624085D01*
X118471428Y-100624085D02*
X118471428Y-100766942D01*
X118471428Y-100766942D02*
X118433332Y-100862180D01*
X118433332Y-100862180D02*
X118395237Y-100909800D01*
X118395237Y-100909800D02*
X118319047Y-100957419D01*
X118319047Y-100957419D02*
X118014285Y-100957419D01*
X118014285Y-100957419D02*
X118014285Y-99957419D01*
X118014285Y-99957419D02*
X118280951Y-99957419D01*
X118280951Y-99957419D02*
X118357142Y-100005038D01*
X118357142Y-100005038D02*
X118395237Y-100052657D01*
X118395237Y-100052657D02*
X118433332Y-100147895D01*
X118433332Y-100147895D02*
X118433332Y-100243133D01*
X118433332Y-100243133D02*
X118395237Y-100338371D01*
X118395237Y-100338371D02*
X118357142Y-100385990D01*
X118357142Y-100385990D02*
X118280951Y-100433609D01*
X118280951Y-100433609D02*
X118014285Y-100433609D01*
X119157142Y-100957419D02*
X119157142Y-100433609D01*
X119157142Y-100433609D02*
X119119047Y-100338371D01*
X119119047Y-100338371D02*
X119042856Y-100290752D01*
X119042856Y-100290752D02*
X118890475Y-100290752D01*
X118890475Y-100290752D02*
X118814285Y-100338371D01*
X119157142Y-100909800D02*
X119080951Y-100957419D01*
X119080951Y-100957419D02*
X118890475Y-100957419D01*
X118890475Y-100957419D02*
X118814285Y-100909800D01*
X118814285Y-100909800D02*
X118776189Y-100814561D01*
X118776189Y-100814561D02*
X118776189Y-100719323D01*
X118776189Y-100719323D02*
X118814285Y-100624085D01*
X118814285Y-100624085D02*
X118890475Y-100576466D01*
X118890475Y-100576466D02*
X119080951Y-100576466D01*
X119080951Y-100576466D02*
X119157142Y-100528847D01*
X119538095Y-100957419D02*
X119538095Y-100290752D01*
X119538095Y-100481228D02*
X119576190Y-100385990D01*
X119576190Y-100385990D02*
X119614285Y-100338371D01*
X119614285Y-100338371D02*
X119690476Y-100290752D01*
X119690476Y-100290752D02*
X119766666Y-100290752D01*
X120033333Y-100957419D02*
X120033333Y-100290752D01*
X120033333Y-100481228D02*
X120071428Y-100385990D01*
X120071428Y-100385990D02*
X120109523Y-100338371D01*
X120109523Y-100338371D02*
X120185714Y-100290752D01*
X120185714Y-100290752D02*
X120261904Y-100290752D01*
X120833333Y-100909800D02*
X120757142Y-100957419D01*
X120757142Y-100957419D02*
X120604761Y-100957419D01*
X120604761Y-100957419D02*
X120528571Y-100909800D01*
X120528571Y-100909800D02*
X120490475Y-100814561D01*
X120490475Y-100814561D02*
X120490475Y-100433609D01*
X120490475Y-100433609D02*
X120528571Y-100338371D01*
X120528571Y-100338371D02*
X120604761Y-100290752D01*
X120604761Y-100290752D02*
X120757142Y-100290752D01*
X120757142Y-100290752D02*
X120833333Y-100338371D01*
X120833333Y-100338371D02*
X120871428Y-100433609D01*
X120871428Y-100433609D02*
X120871428Y-100528847D01*
X120871428Y-100528847D02*
X120490475Y-100624085D01*
X121328570Y-100957419D02*
X121252380Y-100909800D01*
X121252380Y-100909800D02*
X121214285Y-100814561D01*
X121214285Y-100814561D02*
X121214285Y-99957419D01*
X121442857Y-101052657D02*
X122052380Y-101052657D01*
X122471428Y-99957419D02*
X122471428Y-100671704D01*
X122471428Y-100671704D02*
X122433333Y-100814561D01*
X122433333Y-100814561D02*
X122357142Y-100909800D01*
X122357142Y-100909800D02*
X122242857Y-100957419D01*
X122242857Y-100957419D02*
X122166666Y-100957419D01*
X123195238Y-100957419D02*
X123195238Y-100433609D01*
X123195238Y-100433609D02*
X123157143Y-100338371D01*
X123157143Y-100338371D02*
X123080952Y-100290752D01*
X123080952Y-100290752D02*
X122928571Y-100290752D01*
X122928571Y-100290752D02*
X122852381Y-100338371D01*
X123195238Y-100909800D02*
X123119047Y-100957419D01*
X123119047Y-100957419D02*
X122928571Y-100957419D01*
X122928571Y-100957419D02*
X122852381Y-100909800D01*
X122852381Y-100909800D02*
X122814285Y-100814561D01*
X122814285Y-100814561D02*
X122814285Y-100719323D01*
X122814285Y-100719323D02*
X122852381Y-100624085D01*
X122852381Y-100624085D02*
X122928571Y-100576466D01*
X122928571Y-100576466D02*
X123119047Y-100576466D01*
X123119047Y-100576466D02*
X123195238Y-100528847D01*
X123919048Y-100909800D02*
X123842857Y-100957419D01*
X123842857Y-100957419D02*
X123690476Y-100957419D01*
X123690476Y-100957419D02*
X123614286Y-100909800D01*
X123614286Y-100909800D02*
X123576191Y-100862180D01*
X123576191Y-100862180D02*
X123538095Y-100766942D01*
X123538095Y-100766942D02*
X123538095Y-100481228D01*
X123538095Y-100481228D02*
X123576191Y-100385990D01*
X123576191Y-100385990D02*
X123614286Y-100338371D01*
X123614286Y-100338371D02*
X123690476Y-100290752D01*
X123690476Y-100290752D02*
X123842857Y-100290752D01*
X123842857Y-100290752D02*
X123919048Y-100338371D01*
X124261905Y-100957419D02*
X124261905Y-99957419D01*
X124338095Y-100576466D02*
X124566667Y-100957419D01*
X124566667Y-100290752D02*
X124261905Y-100671704D01*
X124719048Y-101052657D02*
X125328571Y-101052657D01*
X125480952Y-100909800D02*
X125595238Y-100957419D01*
X125595238Y-100957419D02*
X125785714Y-100957419D01*
X125785714Y-100957419D02*
X125861905Y-100909800D01*
X125861905Y-100909800D02*
X125900000Y-100862180D01*
X125900000Y-100862180D02*
X125938095Y-100766942D01*
X125938095Y-100766942D02*
X125938095Y-100671704D01*
X125938095Y-100671704D02*
X125900000Y-100576466D01*
X125900000Y-100576466D02*
X125861905Y-100528847D01*
X125861905Y-100528847D02*
X125785714Y-100481228D01*
X125785714Y-100481228D02*
X125633333Y-100433609D01*
X125633333Y-100433609D02*
X125557143Y-100385990D01*
X125557143Y-100385990D02*
X125519048Y-100338371D01*
X125519048Y-100338371D02*
X125480952Y-100243133D01*
X125480952Y-100243133D02*
X125480952Y-100147895D01*
X125480952Y-100147895D02*
X125519048Y-100052657D01*
X125519048Y-100052657D02*
X125557143Y-100005038D01*
X125557143Y-100005038D02*
X125633333Y-99957419D01*
X125633333Y-99957419D02*
X125823810Y-99957419D01*
X125823810Y-99957419D02*
X125938095Y-100005038D01*
X126204762Y-100290752D02*
X126357143Y-100957419D01*
X126357143Y-100957419D02*
X126509524Y-100481228D01*
X126509524Y-100481228D02*
X126661905Y-100957419D01*
X126661905Y-100957419D02*
X126814286Y-100290752D01*
X127119048Y-100957419D02*
X127119048Y-100290752D01*
X127119048Y-99957419D02*
X127080952Y-100005038D01*
X127080952Y-100005038D02*
X127119048Y-100052657D01*
X127119048Y-100052657D02*
X127157143Y-100005038D01*
X127157143Y-100005038D02*
X127119048Y-99957419D01*
X127119048Y-99957419D02*
X127119048Y-100052657D01*
X127385714Y-100290752D02*
X127690476Y-100290752D01*
X127500000Y-99957419D02*
X127500000Y-100814561D01*
X127500000Y-100814561D02*
X127538095Y-100909800D01*
X127538095Y-100909800D02*
X127614285Y-100957419D01*
X127614285Y-100957419D02*
X127690476Y-100957419D01*
X128300000Y-100909800D02*
X128223809Y-100957419D01*
X128223809Y-100957419D02*
X128071428Y-100957419D01*
X128071428Y-100957419D02*
X127995238Y-100909800D01*
X127995238Y-100909800D02*
X127957143Y-100862180D01*
X127957143Y-100862180D02*
X127919047Y-100766942D01*
X127919047Y-100766942D02*
X127919047Y-100481228D01*
X127919047Y-100481228D02*
X127957143Y-100385990D01*
X127957143Y-100385990D02*
X127995238Y-100338371D01*
X127995238Y-100338371D02*
X128071428Y-100290752D01*
X128071428Y-100290752D02*
X128223809Y-100290752D01*
X128223809Y-100290752D02*
X128300000Y-100338371D01*
X128642857Y-100957419D02*
X128642857Y-99957419D01*
X128985714Y-100957419D02*
X128985714Y-100433609D01*
X128985714Y-100433609D02*
X128947619Y-100338371D01*
X128947619Y-100338371D02*
X128871428Y-100290752D01*
X128871428Y-100290752D02*
X128757142Y-100290752D01*
X128757142Y-100290752D02*
X128680952Y-100338371D01*
X128680952Y-100338371D02*
X128642857Y-100385990D01*
D11*
X137927200Y-106751904D02*
X137974819Y-106609047D01*
X137974819Y-106609047D02*
X137974819Y-106370952D01*
X137974819Y-106370952D02*
X137927200Y-106275714D01*
X137927200Y-106275714D02*
X137879580Y-106228095D01*
X137879580Y-106228095D02*
X137784342Y-106180476D01*
X137784342Y-106180476D02*
X137689104Y-106180476D01*
X137689104Y-106180476D02*
X137593866Y-106228095D01*
X137593866Y-106228095D02*
X137546247Y-106275714D01*
X137546247Y-106275714D02*
X137498628Y-106370952D01*
X137498628Y-106370952D02*
X137451009Y-106561428D01*
X137451009Y-106561428D02*
X137403390Y-106656666D01*
X137403390Y-106656666D02*
X137355771Y-106704285D01*
X137355771Y-106704285D02*
X137260533Y-106751904D01*
X137260533Y-106751904D02*
X137165295Y-106751904D01*
X137165295Y-106751904D02*
X137070057Y-106704285D01*
X137070057Y-106704285D02*
X137022438Y-106656666D01*
X137022438Y-106656666D02*
X136974819Y-106561428D01*
X136974819Y-106561428D02*
X136974819Y-106323333D01*
X136974819Y-106323333D02*
X137022438Y-106180476D01*
X137974819Y-105228095D02*
X137974819Y-105799523D01*
X137974819Y-105513809D02*
X136974819Y-105513809D01*
X136974819Y-105513809D02*
X137117676Y-105609047D01*
X137117676Y-105609047D02*
X137212914Y-105704285D01*
X137212914Y-105704285D02*
X137260533Y-105799523D01*
D10*
X131683609Y-103345238D02*
X131683609Y-103078572D01*
X132207419Y-102964286D02*
X132207419Y-103345238D01*
X132207419Y-103345238D02*
X131207419Y-103345238D01*
X131207419Y-103345238D02*
X131207419Y-102964286D01*
X131255038Y-102202381D02*
X131207419Y-102278571D01*
X131207419Y-102278571D02*
X131207419Y-102392857D01*
X131207419Y-102392857D02*
X131255038Y-102507143D01*
X131255038Y-102507143D02*
X131350276Y-102583333D01*
X131350276Y-102583333D02*
X131445514Y-102621428D01*
X131445514Y-102621428D02*
X131635990Y-102659524D01*
X131635990Y-102659524D02*
X131778847Y-102659524D01*
X131778847Y-102659524D02*
X131969323Y-102621428D01*
X131969323Y-102621428D02*
X132064561Y-102583333D01*
X132064561Y-102583333D02*
X132159800Y-102507143D01*
X132159800Y-102507143D02*
X132207419Y-102392857D01*
X132207419Y-102392857D02*
X132207419Y-102316666D01*
X132207419Y-102316666D02*
X132159800Y-102202381D01*
X132159800Y-102202381D02*
X132112180Y-102164285D01*
X132112180Y-102164285D02*
X131778847Y-102164285D01*
X131778847Y-102164285D02*
X131778847Y-102316666D01*
X132207419Y-101402381D02*
X132207419Y-101859524D01*
X132207419Y-101630952D02*
X131207419Y-101630952D01*
X131207419Y-101630952D02*
X131350276Y-101707143D01*
X131350276Y-101707143D02*
X131445514Y-101783333D01*
X131445514Y-101783333D02*
X131493133Y-101859524D01*
X131302657Y-101097619D02*
X131255038Y-101059523D01*
X131255038Y-101059523D02*
X131207419Y-100983333D01*
X131207419Y-100983333D02*
X131207419Y-100792857D01*
X131207419Y-100792857D02*
X131255038Y-100716666D01*
X131255038Y-100716666D02*
X131302657Y-100678571D01*
X131302657Y-100678571D02*
X131397895Y-100640476D01*
X131397895Y-100640476D02*
X131493133Y-100640476D01*
X131493133Y-100640476D02*
X131635990Y-100678571D01*
X131635990Y-100678571D02*
X132207419Y-101135714D01*
X132207419Y-101135714D02*
X132207419Y-100640476D01*
X132207419Y-99878571D02*
X132207419Y-100335714D01*
X132207419Y-100107142D02*
X131207419Y-100107142D01*
X131207419Y-100107142D02*
X131350276Y-100183333D01*
X131350276Y-100183333D02*
X131445514Y-100259523D01*
X131445514Y-100259523D02*
X131493133Y-100335714D01*
X131635990Y-99421428D02*
X131588371Y-99497618D01*
X131588371Y-99497618D02*
X131540752Y-99535713D01*
X131540752Y-99535713D02*
X131445514Y-99573809D01*
X131445514Y-99573809D02*
X131397895Y-99573809D01*
X131397895Y-99573809D02*
X131302657Y-99535713D01*
X131302657Y-99535713D02*
X131255038Y-99497618D01*
X131255038Y-99497618D02*
X131207419Y-99421428D01*
X131207419Y-99421428D02*
X131207419Y-99269047D01*
X131207419Y-99269047D02*
X131255038Y-99192856D01*
X131255038Y-99192856D02*
X131302657Y-99154761D01*
X131302657Y-99154761D02*
X131397895Y-99116666D01*
X131397895Y-99116666D02*
X131445514Y-99116666D01*
X131445514Y-99116666D02*
X131540752Y-99154761D01*
X131540752Y-99154761D02*
X131588371Y-99192856D01*
X131588371Y-99192856D02*
X131635990Y-99269047D01*
X131635990Y-99269047D02*
X131635990Y-99421428D01*
X131635990Y-99421428D02*
X131683609Y-99497618D01*
X131683609Y-99497618D02*
X131731228Y-99535713D01*
X131731228Y-99535713D02*
X131826466Y-99573809D01*
X131826466Y-99573809D02*
X132016942Y-99573809D01*
X132016942Y-99573809D02*
X132112180Y-99535713D01*
X132112180Y-99535713D02*
X132159800Y-99497618D01*
X132159800Y-99497618D02*
X132207419Y-99421428D01*
X132207419Y-99421428D02*
X132207419Y-99269047D01*
X132207419Y-99269047D02*
X132159800Y-99192856D01*
X132159800Y-99192856D02*
X132112180Y-99154761D01*
X132112180Y-99154761D02*
X132016942Y-99116666D01*
X132016942Y-99116666D02*
X131826466Y-99116666D01*
X131826466Y-99116666D02*
X131731228Y-99154761D01*
X131731228Y-99154761D02*
X131683609Y-99192856D01*
X131683609Y-99192856D02*
X131635990Y-99269047D01*
D11*
X121988095Y-121779819D02*
X121988095Y-122589342D01*
X121988095Y-122589342D02*
X122035714Y-122684580D01*
X122035714Y-122684580D02*
X122083333Y-122732200D01*
X122083333Y-122732200D02*
X122178571Y-122779819D01*
X122178571Y-122779819D02*
X122369047Y-122779819D01*
X122369047Y-122779819D02*
X122464285Y-122732200D01*
X122464285Y-122732200D02*
X122511904Y-122684580D01*
X122511904Y-122684580D02*
X122559523Y-122589342D01*
X122559523Y-122589342D02*
X122559523Y-121779819D01*
X123559523Y-122779819D02*
X122988095Y-122779819D01*
X123273809Y-122779819D02*
X123273809Y-121779819D01*
X123273809Y-121779819D02*
X123178571Y-121922676D01*
X123178571Y-121922676D02*
X123083333Y-122017914D01*
X123083333Y-122017914D02*
X122988095Y-122065533D01*
D10*
X118388094Y-116012419D02*
X118007142Y-116012419D01*
X118007142Y-116012419D02*
X118007142Y-115012419D01*
X118654761Y-116012419D02*
X118654761Y-115012419D01*
X118654761Y-115012419D02*
X118921427Y-115726704D01*
X118921427Y-115726704D02*
X119188094Y-115012419D01*
X119188094Y-115012419D02*
X119188094Y-116012419D01*
X119492856Y-115012419D02*
X120026190Y-115012419D01*
X120026190Y-115012419D02*
X119683332Y-116012419D01*
X120445237Y-115440990D02*
X120369047Y-115393371D01*
X120369047Y-115393371D02*
X120330952Y-115345752D01*
X120330952Y-115345752D02*
X120292856Y-115250514D01*
X120292856Y-115250514D02*
X120292856Y-115202895D01*
X120292856Y-115202895D02*
X120330952Y-115107657D01*
X120330952Y-115107657D02*
X120369047Y-115060038D01*
X120369047Y-115060038D02*
X120445237Y-115012419D01*
X120445237Y-115012419D02*
X120597618Y-115012419D01*
X120597618Y-115012419D02*
X120673809Y-115060038D01*
X120673809Y-115060038D02*
X120711904Y-115107657D01*
X120711904Y-115107657D02*
X120749999Y-115202895D01*
X120749999Y-115202895D02*
X120749999Y-115250514D01*
X120749999Y-115250514D02*
X120711904Y-115345752D01*
X120711904Y-115345752D02*
X120673809Y-115393371D01*
X120673809Y-115393371D02*
X120597618Y-115440990D01*
X120597618Y-115440990D02*
X120445237Y-115440990D01*
X120445237Y-115440990D02*
X120369047Y-115488609D01*
X120369047Y-115488609D02*
X120330952Y-115536228D01*
X120330952Y-115536228D02*
X120292856Y-115631466D01*
X120292856Y-115631466D02*
X120292856Y-115821942D01*
X120292856Y-115821942D02*
X120330952Y-115917180D01*
X120330952Y-115917180D02*
X120369047Y-115964800D01*
X120369047Y-115964800D02*
X120445237Y-116012419D01*
X120445237Y-116012419D02*
X120597618Y-116012419D01*
X120597618Y-116012419D02*
X120673809Y-115964800D01*
X120673809Y-115964800D02*
X120711904Y-115917180D01*
X120711904Y-115917180D02*
X120749999Y-115821942D01*
X120749999Y-115821942D02*
X120749999Y-115631466D01*
X120749999Y-115631466D02*
X120711904Y-115536228D01*
X120711904Y-115536228D02*
X120673809Y-115488609D01*
X120673809Y-115488609D02*
X120597618Y-115440990D01*
X121092857Y-116012419D02*
X121092857Y-115012419D01*
X121092857Y-115012419D02*
X121359523Y-115726704D01*
X121359523Y-115726704D02*
X121626190Y-115012419D01*
X121626190Y-115012419D02*
X121626190Y-116012419D01*
X122159524Y-115012419D02*
X122235714Y-115012419D01*
X122235714Y-115012419D02*
X122311905Y-115060038D01*
X122311905Y-115060038D02*
X122350000Y-115107657D01*
X122350000Y-115107657D02*
X122388095Y-115202895D01*
X122388095Y-115202895D02*
X122426190Y-115393371D01*
X122426190Y-115393371D02*
X122426190Y-115631466D01*
X122426190Y-115631466D02*
X122388095Y-115821942D01*
X122388095Y-115821942D02*
X122350000Y-115917180D01*
X122350000Y-115917180D02*
X122311905Y-115964800D01*
X122311905Y-115964800D02*
X122235714Y-116012419D01*
X122235714Y-116012419D02*
X122159524Y-116012419D01*
X122159524Y-116012419D02*
X122083333Y-115964800D01*
X122083333Y-115964800D02*
X122045238Y-115917180D01*
X122045238Y-115917180D02*
X122007143Y-115821942D01*
X122007143Y-115821942D02*
X121969047Y-115631466D01*
X121969047Y-115631466D02*
X121969047Y-115393371D01*
X121969047Y-115393371D02*
X122007143Y-115202895D01*
X122007143Y-115202895D02*
X122045238Y-115107657D01*
X122045238Y-115107657D02*
X122083333Y-115060038D01*
X122083333Y-115060038D02*
X122159524Y-115012419D01*
X123150000Y-115012419D02*
X122769048Y-115012419D01*
X122769048Y-115012419D02*
X122730952Y-115488609D01*
X122730952Y-115488609D02*
X122769048Y-115440990D01*
X122769048Y-115440990D02*
X122845238Y-115393371D01*
X122845238Y-115393371D02*
X123035714Y-115393371D01*
X123035714Y-115393371D02*
X123111905Y-115440990D01*
X123111905Y-115440990D02*
X123150000Y-115488609D01*
X123150000Y-115488609D02*
X123188095Y-115583847D01*
X123188095Y-115583847D02*
X123188095Y-115821942D01*
X123188095Y-115821942D02*
X123150000Y-115917180D01*
X123150000Y-115917180D02*
X123111905Y-115964800D01*
X123111905Y-115964800D02*
X123035714Y-116012419D01*
X123035714Y-116012419D02*
X122845238Y-116012419D01*
X122845238Y-116012419D02*
X122769048Y-115964800D01*
X122769048Y-115964800D02*
X122730952Y-115917180D01*
X123340477Y-116107657D02*
X123950000Y-116107657D01*
X124026191Y-115012419D02*
X124483334Y-115012419D01*
X124254762Y-116012419D02*
X124254762Y-115012419D01*
X124902382Y-115012419D02*
X125054763Y-115012419D01*
X125054763Y-115012419D02*
X125130953Y-115060038D01*
X125130953Y-115060038D02*
X125207144Y-115155276D01*
X125207144Y-115155276D02*
X125245239Y-115345752D01*
X125245239Y-115345752D02*
X125245239Y-115679085D01*
X125245239Y-115679085D02*
X125207144Y-115869561D01*
X125207144Y-115869561D02*
X125130953Y-115964800D01*
X125130953Y-115964800D02*
X125054763Y-116012419D01*
X125054763Y-116012419D02*
X124902382Y-116012419D01*
X124902382Y-116012419D02*
X124826191Y-115964800D01*
X124826191Y-115964800D02*
X124750001Y-115869561D01*
X124750001Y-115869561D02*
X124711905Y-115679085D01*
X124711905Y-115679085D02*
X124711905Y-115345752D01*
X124711905Y-115345752D02*
X124750001Y-115155276D01*
X124750001Y-115155276D02*
X124826191Y-115060038D01*
X124826191Y-115060038D02*
X124902382Y-115012419D01*
X125550000Y-115107657D02*
X125588096Y-115060038D01*
X125588096Y-115060038D02*
X125664286Y-115012419D01*
X125664286Y-115012419D02*
X125854762Y-115012419D01*
X125854762Y-115012419D02*
X125930953Y-115060038D01*
X125930953Y-115060038D02*
X125969048Y-115107657D01*
X125969048Y-115107657D02*
X126007143Y-115202895D01*
X126007143Y-115202895D02*
X126007143Y-115298133D01*
X126007143Y-115298133D02*
X125969048Y-115440990D01*
X125969048Y-115440990D02*
X125511905Y-116012419D01*
X125511905Y-116012419D02*
X126007143Y-116012419D01*
X126311905Y-115107657D02*
X126350001Y-115060038D01*
X126350001Y-115060038D02*
X126426191Y-115012419D01*
X126426191Y-115012419D02*
X126616667Y-115012419D01*
X126616667Y-115012419D02*
X126692858Y-115060038D01*
X126692858Y-115060038D02*
X126730953Y-115107657D01*
X126730953Y-115107657D02*
X126769048Y-115202895D01*
X126769048Y-115202895D02*
X126769048Y-115298133D01*
X126769048Y-115298133D02*
X126730953Y-115440990D01*
X126730953Y-115440990D02*
X126273810Y-116012419D01*
X126273810Y-116012419D02*
X126769048Y-116012419D01*
X127264287Y-115012419D02*
X127340477Y-115012419D01*
X127340477Y-115012419D02*
X127416668Y-115060038D01*
X127416668Y-115060038D02*
X127454763Y-115107657D01*
X127454763Y-115107657D02*
X127492858Y-115202895D01*
X127492858Y-115202895D02*
X127530953Y-115393371D01*
X127530953Y-115393371D02*
X127530953Y-115631466D01*
X127530953Y-115631466D02*
X127492858Y-115821942D01*
X127492858Y-115821942D02*
X127454763Y-115917180D01*
X127454763Y-115917180D02*
X127416668Y-115964800D01*
X127416668Y-115964800D02*
X127340477Y-116012419D01*
X127340477Y-116012419D02*
X127264287Y-116012419D01*
X127264287Y-116012419D02*
X127188096Y-115964800D01*
X127188096Y-115964800D02*
X127150001Y-115917180D01*
X127150001Y-115917180D02*
X127111906Y-115821942D01*
X127111906Y-115821942D02*
X127073810Y-115631466D01*
X127073810Y-115631466D02*
X127073810Y-115393371D01*
X127073810Y-115393371D02*
X127111906Y-115202895D01*
X127111906Y-115202895D02*
X127150001Y-115107657D01*
X127150001Y-115107657D02*
X127188096Y-115060038D01*
X127188096Y-115060038D02*
X127264287Y-115012419D01*
D12*
%TO.C,J4*%
X126620000Y-130170000D02*
X126620000Y-131500000D01*
X125290000Y-130170000D02*
X126620000Y-130170000D01*
X124020000Y-130170000D02*
X118880000Y-130170000D01*
X124020000Y-130170000D02*
X124020000Y-132830000D01*
X118880000Y-130170000D02*
X118880000Y-132830000D01*
X124020000Y-132830000D02*
X118880000Y-132830000D01*
%TO.C,U2*%
X135520000Y-113880000D02*
X130879000Y-113880000D01*
X135520000Y-113880000D02*
X135520000Y-124120000D01*
X134010000Y-113880000D02*
X134010000Y-124120000D01*
X130879000Y-113880000D02*
X130879000Y-124120000D01*
X135520000Y-117150000D02*
X134010000Y-117150000D01*
X135520000Y-120851000D02*
X134010000Y-120851000D01*
X135520000Y-124120000D02*
X130879000Y-124120000D01*
%TO.C,R1*%
X130620000Y-126250000D02*
X129670000Y-126250000D01*
X129670000Y-127170000D02*
X129670000Y-125330000D01*
X129670000Y-125330000D02*
X125830000Y-125330000D01*
X125830000Y-127170000D02*
X129670000Y-127170000D01*
X125830000Y-125330000D02*
X125830000Y-127170000D01*
X124880000Y-126250000D02*
X125830000Y-126250000D01*
%TO.C,C1*%
X141621000Y-97580000D02*
X142879000Y-97580000D01*
X141621000Y-99420000D02*
X142879000Y-99420000D01*
%TO.C,J2*%
X144416000Y-133420000D02*
X145746000Y-133420000D01*
X144416000Y-134750000D02*
X144416000Y-133420000D01*
X144416000Y-136020000D02*
X144416000Y-138620000D01*
X144416000Y-136020000D02*
X147076000Y-136020000D01*
X144416000Y-138620000D02*
X147076000Y-138620000D01*
X147076000Y-136020000D02*
X147076000Y-138620000D01*
%TO.C,R2*%
X139000000Y-111380000D02*
X139000000Y-112330000D01*
X139920000Y-112330000D02*
X138080000Y-112330000D01*
X138080000Y-112330000D02*
X138080000Y-116170000D01*
X139920000Y-116170000D02*
X139920000Y-112330000D01*
X138080000Y-116170000D02*
X139920000Y-116170000D01*
X139000000Y-117120000D02*
X139000000Y-116170000D01*
%TO.C,J3*%
X127355000Y-88920000D02*
X127355000Y-90250000D01*
X126025000Y-88920000D02*
X127355000Y-88920000D01*
X124755000Y-88920000D02*
X119615000Y-88920000D01*
X124755000Y-88920000D02*
X124755000Y-91580000D01*
X119615000Y-88920000D02*
X119615000Y-91580000D01*
X124755000Y-91580000D02*
X119615000Y-91580000D01*
%TO.C,D1*%
X143795000Y-120960000D02*
X140705000Y-120960000D01*
X142249538Y-126509999D02*
G75*
G03*
X143794830Y-120960001I462J2989999D01*
G01*
X140705170Y-120960000D02*
G75*
G03*
X142250462Y-126510000I1544830J-2560000D01*
G01*
X144750000Y-123520000D02*
G75*
G03*
X144750000Y-123520000I-2500000J0D01*
G01*
%TO.C,R3*%
X143250000Y-104630000D02*
X143250000Y-105580000D01*
X144170000Y-105580000D02*
X142330000Y-105580000D01*
X142330000Y-105580000D02*
X142330000Y-109420000D01*
X144170000Y-109420000D02*
X144170000Y-105580000D01*
X142330000Y-109420000D02*
X144170000Y-109420000D01*
X143250000Y-110370000D02*
X143250000Y-109420000D01*
%TO.C,J7*%
X142810000Y-128670000D02*
X135190000Y-128670000D01*
X135190000Y-128670000D02*
X135190000Y-138830000D01*
X142810000Y-138830000D02*
X142810000Y-128670000D01*
X136460000Y-138830000D02*
X136460000Y-128670000D01*
X135190000Y-138830000D02*
X142810000Y-138830000D01*
%TO.C,C3*%
X124371000Y-95580000D02*
X125629000Y-95580000D01*
X124371000Y-97420000D02*
X125629000Y-97420000D01*
%TO.C,C2*%
X133170000Y-91871000D02*
X133170000Y-93129000D01*
X131330000Y-91871000D02*
X131330000Y-93129000D01*
%TO.C,J5*%
X133670000Y-87584000D02*
X133670000Y-95204000D01*
X133670000Y-95204000D02*
X143830000Y-95204000D01*
X143830000Y-87584000D02*
X133670000Y-87584000D01*
X143830000Y-93934000D02*
X133670000Y-93934000D01*
X143830000Y-95204000D02*
X143830000Y-87584000D01*
%TO.C,J6*%
X115950000Y-101650000D02*
X130650000Y-101650000D01*
X115950000Y-110850000D02*
X115950000Y-101650000D01*
X124750000Y-110850000D02*
X115950000Y-110850000D01*
X129800000Y-101450000D02*
X130850000Y-101450000D01*
X130650000Y-101650000D02*
X130650000Y-104250000D01*
X130650000Y-108150000D02*
X130650000Y-110850000D01*
X130650000Y-110850000D02*
X128750000Y-110850000D01*
X130850000Y-102500000D02*
X130850000Y-101450000D01*
D10*
%TO.C,S1*%
X136600000Y-99900000D02*
X136100000Y-99900000D01*
X136600000Y-99900000D02*
X136600000Y-100400000D01*
X132400000Y-99900000D02*
X132900000Y-99900000D01*
X132400000Y-99900000D02*
X132400000Y-100400000D01*
X136600000Y-111800000D02*
X136600000Y-111300000D01*
X136600000Y-111800000D02*
X136100000Y-111800000D01*
X132400000Y-111800000D02*
X132400000Y-111300000D01*
X132400000Y-111800000D02*
X132900000Y-111800000D01*
D12*
%TO.C,U1*%
X127870000Y-121325000D02*
X127870000Y-116684000D01*
X127870000Y-121325000D02*
X117630000Y-121325000D01*
X127870000Y-119815000D02*
X117630000Y-119815000D01*
X127870000Y-116684000D02*
X117630000Y-116684000D01*
X124600000Y-121325000D02*
X124600000Y-119815000D01*
X120899000Y-121325000D02*
X120899000Y-119815000D01*
X117630000Y-121325000D02*
X117630000Y-116684000D01*
%TO.C,J1*%
X144670000Y-87880000D02*
X146000000Y-87880000D01*
X144670000Y-89210000D02*
X144670000Y-87880000D01*
X144670000Y-90480000D02*
X144670000Y-93080000D01*
X144670000Y-90480000D02*
X147330000Y-90480000D01*
X144670000Y-93080000D02*
X147330000Y-93080000D01*
X147330000Y-90480000D02*
X147330000Y-93080000D01*
%TD*%
M02*
