%TF.GenerationSoftware,KiCad,Pcbnew,7.0.7*%
%TF.CreationDate,2024-08-02T14:57:20+08:00*%
%TF.ProjectId,Breadboard_power_supply,42726561-6462-46f6-9172-645f706f7765,rev?*%
%TF.SameCoordinates,Original*%
%TF.FileFunction,Copper,L1,Top*%
%TF.FilePolarity,Positive*%
%FSLAX46Y46*%
G04 Gerber Fmt 4.6, Leading zero omitted, Abs format (unit mm)*
G04 Created by KiCad (PCBNEW 7.0.7) date 2024-08-02 14:57:20*
%MOMM*%
%LPD*%
G01*
G04 APERTURE LIST*
G04 Aperture macros list*
%AMRoundRect*
0 Rectangle with rounded corners*
0 $1 Rounding radius*
0 $2 $3 $4 $5 $6 $7 $8 $9 X,Y pos of 4 corners*
0 Add a 4 corners polygon primitive as box body*
4,1,4,$2,$3,$4,$5,$6,$7,$8,$9,$2,$3,0*
0 Add four circle primitives for the rounded corners*
1,1,$1+$1,$2,$3*
1,1,$1+$1,$4,$5*
1,1,$1+$1,$6,$7*
1,1,$1+$1,$8,$9*
0 Add four rect primitives between the rounded corners*
20,1,$1+$1,$2,$3,$4,$5,0*
20,1,$1+$1,$4,$5,$6,$7,0*
20,1,$1+$1,$6,$7,$8,$9,0*
20,1,$1+$1,$8,$9,$2,$3,0*%
G04 Aperture macros list end*
%TA.AperFunction,ComponentPad*%
%ADD10R,1.700000X1.700000*%
%TD*%
%TA.AperFunction,ComponentPad*%
%ADD11O,1.700000X1.700000*%
%TD*%
%TA.AperFunction,ComponentPad*%
%ADD12R,2.000000X1.905000*%
%TD*%
%TA.AperFunction,ComponentPad*%
%ADD13O,2.000000X1.905000*%
%TD*%
%TA.AperFunction,ComponentPad*%
%ADD14C,1.400000*%
%TD*%
%TA.AperFunction,ComponentPad*%
%ADD15O,1.400000X1.400000*%
%TD*%
%TA.AperFunction,ComponentPad*%
%ADD16C,1.600000*%
%TD*%
%TA.AperFunction,ComponentPad*%
%ADD17R,1.800000X1.800000*%
%TD*%
%TA.AperFunction,ComponentPad*%
%ADD18C,1.800000*%
%TD*%
%TA.AperFunction,ComponentPad*%
%ADD19R,3.000000X3.000000*%
%TD*%
%TA.AperFunction,ComponentPad*%
%ADD20C,3.000000*%
%TD*%
%TA.AperFunction,ComponentPad*%
%ADD21R,3.500000X3.500000*%
%TD*%
%TA.AperFunction,ComponentPad*%
%ADD22RoundRect,0.750000X-0.750000X-1.000000X0.750000X-1.000000X0.750000X1.000000X-0.750000X1.000000X0*%
%TD*%
%TA.AperFunction,ComponentPad*%
%ADD23RoundRect,0.875000X-0.875000X-0.875000X0.875000X-0.875000X0.875000X0.875000X-0.875000X0.875000X0*%
%TD*%
%TA.AperFunction,ComponentPad*%
%ADD24R,1.900000X1.900000*%
%TD*%
%TA.AperFunction,ComponentPad*%
%ADD25C,1.900000*%
%TD*%
%TA.AperFunction,ComponentPad*%
%ADD26R,1.905000X2.000000*%
%TD*%
%TA.AperFunction,ComponentPad*%
%ADD27O,1.905000X2.000000*%
%TD*%
%TA.AperFunction,Conductor*%
%ADD28C,0.350000*%
%TD*%
%TA.AperFunction,Conductor*%
%ADD29C,0.250000*%
%TD*%
G04 APERTURE END LIST*
D10*
%TO.P,J4,1,Pin_1*%
%TO.N,/3.3V*%
X125290000Y-131500000D03*
D11*
%TO.P,J4,2,Pin_2*%
%TO.N,/PWR_output*%
X122750000Y-131500000D03*
%TO.P,J4,3,Pin_3*%
%TO.N,/5V*%
X120210000Y-131500000D03*
%TD*%
D12*
%TO.P,U2,1,ADJ*%
%TO.N,Net-(U2-ADJ)*%
X132250000Y-116460000D03*
D13*
%TO.P,U2,2,VO*%
%TO.N,/3.3V*%
X132250000Y-119000000D03*
%TO.P,U2,3,VI*%
%TO.N,/12V*%
X132250000Y-121540000D03*
%TD*%
D14*
%TO.P,R1,1*%
%TO.N,Net-(D1-A)*%
X131560000Y-126250000D03*
D15*
%TO.P,R1,2*%
%TO.N,/12V*%
X123940000Y-126250000D03*
%TD*%
D16*
%TO.P,C1,1*%
%TO.N,/12V*%
X141000000Y-98500000D03*
%TO.P,C1,2*%
%TO.N,GND*%
X143500000Y-98500000D03*
%TD*%
D10*
%TO.P,J2,1,Pin_1*%
%TO.N,GND*%
X145746000Y-134750000D03*
D11*
%TO.P,J2,2,Pin_2*%
%TO.N,/PWR_output*%
X145746000Y-137290000D03*
%TD*%
D14*
%TO.P,R2,1*%
%TO.N,Net-(U2-ADJ)*%
X139000000Y-110440000D03*
D15*
%TO.P,R2,2*%
%TO.N,/3.3V*%
X139000000Y-118060000D03*
%TD*%
D10*
%TO.P,J3,1,Pin_1*%
%TO.N,/3.3V*%
X126025000Y-90250000D03*
D11*
%TO.P,J3,2,Pin_2*%
%TO.N,/PWR_output*%
X123485000Y-90250000D03*
%TO.P,J3,3,Pin_3*%
%TO.N,/5V*%
X120945000Y-90250000D03*
%TD*%
D17*
%TO.P,D1,1,K*%
%TO.N,GND*%
X142250000Y-122250000D03*
D18*
%TO.P,D1,2,A*%
%TO.N,Net-(D1-A)*%
X142250000Y-124790000D03*
%TD*%
D14*
%TO.P,R3,1*%
%TO.N,GND*%
X143250000Y-103690000D03*
D15*
%TO.P,R3,2*%
%TO.N,Net-(U2-ADJ)*%
X143250000Y-111310000D03*
%TD*%
D19*
%TO.P,J7,1,Pin_1*%
%TO.N,GND*%
X139000000Y-131210000D03*
D20*
%TO.P,J7,2,Pin_2*%
%TO.N,/PWR_output*%
X139000000Y-136290000D03*
%TD*%
D16*
%TO.P,C3,1*%
%TO.N,/5V*%
X123750000Y-96500000D03*
%TO.P,C3,2*%
%TO.N,GND*%
X126250000Y-96500000D03*
%TD*%
%TO.P,C2,1*%
%TO.N,/3.3V*%
X132250000Y-91250000D03*
%TO.P,C2,2*%
%TO.N,GND*%
X132250000Y-93750000D03*
%TD*%
D19*
%TO.P,J5,1,Pin_1*%
%TO.N,GND*%
X136210000Y-91394000D03*
D20*
%TO.P,J5,2,Pin_2*%
%TO.N,/PWR_output*%
X141290000Y-91394000D03*
%TD*%
D21*
%TO.P,J6,1*%
%TO.N,/PWR_input*%
X129750000Y-106250000D03*
D22*
%TO.P,J6,2*%
%TO.N,GND*%
X123750000Y-106250000D03*
D23*
%TO.P,J6,3*%
X126750000Y-110950000D03*
%TD*%
D24*
%TO.P,S1,1*%
%TO.N,/12V*%
X134500000Y-103500000D03*
D25*
%TO.P,S1,2*%
%TO.N,/PWR_input*%
X134500000Y-106000000D03*
%TO.P,S1,3*%
%TO.N,unconnected-(S1-Pad3)*%
X134500000Y-108500000D03*
%TD*%
D26*
%TO.P,U1,1,VI*%
%TO.N,/12V*%
X125290000Y-118055000D03*
D27*
%TO.P,U1,2,GND*%
%TO.N,GND*%
X122750000Y-118055000D03*
%TO.P,U1,3,VO*%
%TO.N,/5V*%
X120210000Y-118055000D03*
%TD*%
D10*
%TO.P,J1,1,Pin_1*%
%TO.N,GND*%
X146000000Y-89210000D03*
D11*
%TO.P,J1,2,Pin_2*%
%TO.N,/PWR_output*%
X146000000Y-91750000D03*
%TD*%
D28*
%TO.N,/12V*%
X134750000Y-110500000D02*
X132000000Y-110500000D01*
X135825000Y-109425000D02*
X134750000Y-110500000D01*
X125290000Y-118055000D02*
X127305000Y-118055000D01*
X141000000Y-98500000D02*
X136250000Y-98500000D01*
X136250000Y-98500000D02*
X134500000Y-100250000D01*
X134500000Y-103500000D02*
X135825000Y-104825000D01*
X130325000Y-112175000D02*
X130325000Y-119615000D01*
X135825000Y-104825000D02*
X135825000Y-109425000D01*
X134500000Y-100250000D02*
X134500000Y-103500000D01*
X130790000Y-121540000D02*
X132250000Y-121540000D01*
X132000000Y-110500000D02*
X130325000Y-112175000D01*
X130325000Y-119615000D02*
X132250000Y-121540000D01*
X127305000Y-118055000D02*
X130790000Y-121540000D01*
X123940000Y-119405000D02*
X123940000Y-126250000D01*
X125290000Y-118055000D02*
X123940000Y-119405000D01*
D29*
%TO.N,GND*%
X143500000Y-103440000D02*
X143250000Y-103690000D01*
X136460000Y-92210000D02*
X136460000Y-91250000D01*
X124850000Y-95100000D02*
X126250000Y-96500000D01*
X143500000Y-98500000D02*
X143500000Y-103440000D01*
X124850000Y-89075000D02*
X124850000Y-95100000D01*
X134285000Y-89075000D02*
X124850000Y-89075000D01*
X136460000Y-91250000D02*
X134285000Y-89075000D01*
X125250000Y-109750000D02*
X125250000Y-111450000D01*
D28*
%TO.N,/3.3V*%
X130875000Y-115132500D02*
X131007500Y-115000000D01*
X133575000Y-97325000D02*
X141486701Y-97325000D01*
X131075000Y-92425000D02*
X131075000Y-94825000D01*
X125290000Y-125210000D02*
X126500000Y-124000000D01*
X137250000Y-101750000D02*
X137250000Y-116310000D01*
X141486701Y-97325000D02*
X142175000Y-98013299D01*
X135000000Y-115000000D02*
X138060000Y-118060000D01*
X130875000Y-117625000D02*
X130875000Y-115132500D01*
X131007500Y-115000000D02*
X135000000Y-115000000D01*
X131075000Y-94825000D02*
X133575000Y-97325000D01*
X142175000Y-98013299D02*
X142175000Y-99075000D01*
X132250000Y-91250000D02*
X131075000Y-92425000D01*
X142175000Y-99075000D02*
X140500000Y-100750000D01*
X126025000Y-90250000D02*
X131250000Y-90250000D01*
X138250000Y-100750000D02*
X137250000Y-101750000D01*
X134750000Y-123000000D02*
X134750000Y-121000000D01*
X140500000Y-100750000D02*
X138250000Y-100750000D01*
X131250000Y-90250000D02*
X132250000Y-91250000D01*
X132250000Y-119000000D02*
X130875000Y-117625000D01*
X125290000Y-131500000D02*
X125290000Y-125210000D01*
X126500000Y-124000000D02*
X133750000Y-124000000D01*
X138060000Y-118060000D02*
X139000000Y-118060000D01*
X137250000Y-116310000D02*
X139000000Y-118060000D01*
X132750000Y-119000000D02*
X132250000Y-119000000D01*
X134750000Y-121000000D02*
X132750000Y-119000000D01*
X133750000Y-124000000D02*
X134750000Y-123000000D01*
%TO.N,/5V*%
X117750000Y-116000000D02*
X117750000Y-97250000D01*
X120210000Y-118055000D02*
X119805000Y-118055000D01*
X118500000Y-96500000D02*
X123750000Y-96500000D01*
X120210000Y-118055000D02*
X120210000Y-131500000D01*
X121250000Y-95000000D02*
X123500000Y-95000000D01*
X117750000Y-97250000D02*
X118500000Y-96500000D01*
X120945000Y-94695000D02*
X121250000Y-95000000D01*
X123750000Y-95250000D02*
X123750000Y-96500000D01*
X120945000Y-90250000D02*
X120945000Y-94695000D01*
X119805000Y-118055000D02*
X117750000Y-116000000D01*
X123500000Y-95000000D02*
X123750000Y-95250000D01*
D29*
%TO.N,Net-(D1-A)*%
X131560000Y-126250000D02*
X140790000Y-126250000D01*
X140790000Y-126250000D02*
X142250000Y-124790000D01*
D28*
%TO.N,/PWR_output*%
X120267588Y-136290000D02*
X139000000Y-136290000D01*
X146500000Y-91790000D02*
X142080000Y-91790000D01*
X137960000Y-135250000D02*
X139000000Y-136290000D01*
X140500000Y-88000000D02*
X141540000Y-89040000D01*
X121900000Y-134650000D02*
X122500000Y-135250000D01*
X123485000Y-90250000D02*
X123485000Y-88765000D01*
X122750000Y-131500000D02*
X121900000Y-132350000D01*
X123485000Y-88765000D02*
X124250000Y-88000000D01*
X121900000Y-132350000D02*
X121900000Y-134650000D01*
X123485000Y-90250000D02*
X122260000Y-89025000D01*
X116500000Y-132522412D02*
X120267588Y-136290000D01*
X142080000Y-91790000D02*
X141540000Y-91250000D01*
X118475000Y-89025000D02*
X116500000Y-91000000D01*
X122260000Y-89025000D02*
X118475000Y-89025000D01*
X124250000Y-88000000D02*
X140500000Y-88000000D01*
X116500000Y-91000000D02*
X116500000Y-132522412D01*
X122500000Y-135250000D02*
X137960000Y-135250000D01*
X139000000Y-136290000D02*
X144746000Y-136290000D01*
X141540000Y-89500000D02*
X141540000Y-91250000D01*
X144746000Y-136290000D02*
X145746000Y-137290000D01*
X141540000Y-89040000D02*
X141540000Y-89500000D01*
%TO.N,/PWR_input*%
X128250000Y-106750000D02*
X133750000Y-106750000D01*
X133750000Y-106750000D02*
X134500000Y-106000000D01*
D29*
%TO.N,Net-(U2-ADJ)*%
X135210000Y-116460000D02*
X138000000Y-119250000D01*
X141500000Y-109500000D02*
X141500000Y-109560000D01*
X140500000Y-111000000D02*
X139940000Y-110440000D01*
X139000000Y-110440000D02*
X139000000Y-110000000D01*
D28*
X141500000Y-109560000D02*
X143250000Y-111310000D01*
D29*
X138000000Y-119250000D02*
X139750000Y-119250000D01*
X140500000Y-118500000D02*
X140500000Y-111000000D01*
X139750000Y-119250000D02*
X140500000Y-118500000D01*
X132250000Y-116460000D02*
X135210000Y-116460000D01*
X139940000Y-110440000D02*
X139000000Y-110440000D01*
D28*
X139500000Y-109500000D02*
X141500000Y-109500000D01*
X139000000Y-110000000D02*
X139500000Y-109500000D01*
%TD*%
M02*
